<svg width="66" height="80" viewBox="0 0 66 80" fill="none" xmlns="http://www.w3.org/2000/svg">
<g filter="url(#filter0_d_201_16264)">
<path d="M38.1334 56.3417C38.6796 55.7116 39.4125 55.2773 40.2123 55.0411C50.5033 52.0027 58 42.6301 58 31.5389C58 17.9864 46.8071 7 33 7C19.1929 7 8 17.9864 8 31.5389C8 42.6305 15.4972 52.0033 25.7888 55.0414C26.5886 55.2776 27.3215 55.7119 27.8678 56.342L32.6227 61.8267C32.8221 62.0567 33.1789 62.0567 33.3783 61.8267L38.1334 56.3417Z" fill="#E22C38"/>
</g>
<g filter="url(#filter1_d_201_16264)">
<circle cx="33" cy="67" r="4" fill="white"/>
</g>
<circle cx="33" cy="67" r="2" fill="#E22C38"/>
<path fill-rule="evenodd" clip-rule="evenodd" d="M23.0195 30.8016V31.8016V39.8016C23.0195 40.3546 23.4675 40.8016 24.0195 40.8016H31.0195V34.8016C31.0195 33.6976 31.9155 32.8016 33.0195 32.8016C34.1235 32.8016 35.0195 33.6976 35.0195 34.8016V40.8016H42.0195C42.5715 40.8016 43.0195 40.3546 43.0195 39.8016V31.8016V30.8016H23.0195Z" fill="white"/>
<rect x="23.0195" y="27.8016" width="20" height="2" fill="white"/>
<rect x="29.0195" y="24.8016" width="8" height="2" fill="white"/>
<path d="M33.0195 23.8016L34.7516 21.5516H31.2875L33.0195 23.8016Z" fill="white"/>
<defs>
<filter id="filter0_d_201_16264" x="0" y="0" width="66" height="70.9992" filterUnits="userSpaceOnUse" color-interpolation-filters="sRGB">
<feFlood flood-opacity="0" result="BackgroundImageFix"/>
<feColorMatrix in="SourceAlpha" type="matrix" values="0 0 0 0 0 0 0 0 0 0 0 0 0 0 0 0 0 0 127 0" result="hardAlpha"/>
<feOffset dy="1"/>
<feGaussianBlur stdDeviation="4"/>
<feColorMatrix type="matrix" values="0 0 0 0 0 0 0 0 0 0 0 0 0 0 0 0 0 0 0.1 0"/>
<feBlend mode="normal" in2="BackgroundImageFix" result="effect1_dropShadow_201_16264"/>
<feBlend mode="normal" in="SourceGraphic" in2="effect1_dropShadow_201_16264" result="shape"/>
</filter>
<filter id="filter1_d_201_16264" x="21" y="56" width="24" height="24" filterUnits="userSpaceOnUse" color-interpolation-filters="sRGB">
<feFlood flood-opacity="0" result="BackgroundImageFix"/>
<feColorMatrix in="SourceAlpha" type="matrix" values="0 0 0 0 0 0 0 0 0 0 0 0 0 0 0 0 0 0 127 0" result="hardAlpha"/>
<feOffset dy="1"/>
<feGaussianBlur stdDeviation="4"/>
<feColorMatrix type="matrix" values="0 0 0 0 0 0 0 0 0 0 0 0 0 0 0 0 0 0 0.08 0"/>
<feBlend mode="normal" in2="BackgroundImageFix" result="effect1_dropShadow_201_16264"/>
<feBlend mode="normal" in="SourceGraphic" in2="effect1_dropShadow_201_16264" result="shape"/>
</filter>
</defs>
</svg>
