<svg width="66" height="80" viewBox="0 0 66 80" fill="none" xmlns="http://www.w3.org/2000/svg">
<g filter="url(#filter0_d_201_17437)">
<path d="M38.1334 56.3417C38.6796 55.7116 39.4125 55.2773 40.2123 55.0411C50.5033 52.0027 58 42.6301 58 31.5389C58 17.9864 46.8071 7 33 7C19.1929 7 8 17.9864 8 31.5389C8 42.6305 15.4972 52.0033 25.7888 55.0414C26.5886 55.2776 27.3215 55.7119 27.8678 56.342L32.6227 61.8267C32.8221 62.0567 33.1789 62.0567 33.3783 61.8267L38.1334 56.3417Z" fill="#E22C38"/>
</g>
<g filter="url(#filter1_d_201_17437)">
<circle cx="33" cy="67" r="4" fill="white"/>
</g>
<circle cx="33" cy="67" r="2" fill="#E22C38"/>
<path d="M23 40H41V38H23V40ZM41 28.2H39V25.2H41V28.2ZM41 23.2H25V32C25 33.0609 25.4214 34.0783 26.1716 34.8284C26.9217 35.5786 27.9391 36 29 36H35C36.0609 36 37.0783 35.5786 37.8284 34.8284C38.5786 34.0783 39 33.0609 39 32V30.2H41C41.5304 30.2 42.0391 29.9893 42.4142 29.6142C42.7893 29.2392 43 28.7304 43 28.2V25.2C43 24.09 42.1 23.2 41 23.2Z" fill="white"/>
<defs>
<filter id="filter0_d_201_17437" x="0" y="0" width="66" height="70.9992" filterUnits="userSpaceOnUse" color-interpolation-filters="sRGB">
<feFlood flood-opacity="0" result="BackgroundImageFix"/>
<feColorMatrix in="SourceAlpha" type="matrix" values="0 0 0 0 0 0 0 0 0 0 0 0 0 0 0 0 0 0 127 0" result="hardAlpha"/>
<feOffset dy="1"/>
<feGaussianBlur stdDeviation="4"/>
<feColorMatrix type="matrix" values="0 0 0 0 0 0 0 0 0 0 0 0 0 0 0 0 0 0 0.1 0"/>
<feBlend mode="normal" in2="BackgroundImageFix" result="effect1_dropShadow_201_17437"/>
<feBlend mode="normal" in="SourceGraphic" in2="effect1_dropShadow_201_17437" result="shape"/>
</filter>
<filter id="filter1_d_201_17437" x="21" y="56" width="24" height="24" filterUnits="userSpaceOnUse" color-interpolation-filters="sRGB">
<feFlood flood-opacity="0" result="BackgroundImageFix"/>
<feColorMatrix in="SourceAlpha" type="matrix" values="0 0 0 0 0 0 0 0 0 0 0 0 0 0 0 0 0 0 127 0" result="hardAlpha"/>
<feOffset dy="1"/>
<feGaussianBlur stdDeviation="4"/>
<feColorMatrix type="matrix" values="0 0 0 0 0 0 0 0 0 0 0 0 0 0 0 0 0 0 0.08 0"/>
<feBlend mode="normal" in2="BackgroundImageFix" result="effect1_dropShadow_201_17437"/>
<feBlend mode="normal" in="SourceGraphic" in2="effect1_dropShadow_201_17437" result="shape"/>
</filter>
</defs>
</svg>
