<svg width="66" height="80" viewBox="0 0 66 80" fill="none" xmlns="http://www.w3.org/2000/svg">
<g filter="url(#filter0_d_201_15701)">
<path d="M38.1334 56.3417C38.6796 55.7116 39.4125 55.2773 40.2123 55.0411C50.5033 52.0027 58 42.6301 58 31.5389C58 17.9864 46.8071 7 33 7C19.1929 7 8 17.9864 8 31.5389C8 42.6305 15.4972 52.0033 25.7888 55.0414C26.5886 55.2776 27.3215 55.7119 27.8678 56.342L32.6227 61.8267C32.8221 62.0567 33.1789 62.0567 33.3783 61.8267L38.1334 56.3417Z" fill="#E22C38"/>
</g>
<g filter="url(#filter1_d_201_15701)">
<circle cx="33" cy="67" r="4" fill="white"/>
</g>
<circle cx="33" cy="67" r="2" fill="#E22C38"/>
<g clip-path="url(#clip0_201_15701)">
<path d="M40.7008 42H25.3008V39.8H40.7008V42ZM34.1008 20C32.7258 20 31.4388 20.682 30.6798 21.826L27.5008 26.6L29.7008 28.8L31.9668 27.293C32.4508 26.952 33.1548 27.084 33.4958 27.59C33.5178 27.623 33.5508 27.656 33.5508 27.7C33.8808 28.349 33.7598 29.13 33.2428 29.647L27.9628 34.927C27.3578 35.543 27.3578 36.533 27.9738 37.138C28.2598 37.424 28.6558 37.6 29.0628 37.6H38.5008V24.4C38.5008 23.233 38.0372 22.1139 37.2121 21.2887C36.3869 20.4636 35.2677 20 34.1008 20Z" fill="white"/>
</g>
<defs>
<filter id="filter0_d_201_15701" x="0" y="0" width="66" height="70.9991" filterUnits="userSpaceOnUse" color-interpolation-filters="sRGB">
<feFlood flood-opacity="0" result="BackgroundImageFix"/>
<feColorMatrix in="SourceAlpha" type="matrix" values="0 0 0 0 0 0 0 0 0 0 0 0 0 0 0 0 0 0 127 0" result="hardAlpha"/>
<feOffset dy="1"/>
<feGaussianBlur stdDeviation="4"/>
<feColorMatrix type="matrix" values="0 0 0 0 0 0 0 0 0 0 0 0 0 0 0 0 0 0 0.1 0"/>
<feBlend mode="normal" in2="BackgroundImageFix" result="effect1_dropShadow_201_15701"/>
<feBlend mode="normal" in="SourceGraphic" in2="effect1_dropShadow_201_15701" result="shape"/>
</filter>
<filter id="filter1_d_201_15701" x="21" y="56" width="24" height="24" filterUnits="userSpaceOnUse" color-interpolation-filters="sRGB">
<feFlood flood-opacity="0" result="BackgroundImageFix"/>
<feColorMatrix in="SourceAlpha" type="matrix" values="0 0 0 0 0 0 0 0 0 0 0 0 0 0 0 0 0 0 127 0" result="hardAlpha"/>
<feOffset dy="1"/>
<feGaussianBlur stdDeviation="4"/>
<feColorMatrix type="matrix" values="0 0 0 0 0 0 0 0 0 0 0 0 0 0 0 0 0 0 0.08 0"/>
<feBlend mode="normal" in2="BackgroundImageFix" result="effect1_dropShadow_201_15701"/>
<feBlend mode="normal" in="SourceGraphic" in2="effect1_dropShadow_201_15701" result="shape"/>
</filter>
<clipPath id="clip0_201_15701">
<rect width="22" height="22" fill="white" transform="translate(22 20)"/>
</clipPath>
</defs>
</svg>
