<svg width="66" height="80" viewBox="0 0 66 80" fill="none" xmlns="http://www.w3.org/2000/svg">
<g filter="url(#filter0_d_201_4397)">
<path d="M38.1334 56.3417C38.6796 55.7116 39.4125 55.2773 40.2123 55.0411C50.5033 52.0027 58 42.6301 58 31.5389C58 17.9864 46.8071 7 33 7C19.1929 7 8 17.9864 8 31.5389C8 42.6305 15.4972 52.0033 25.7888 55.0414C26.5886 55.2776 27.3215 55.7119 27.8678 56.342L32.6227 61.8267C32.8221 62.0567 33.1789 62.0567 33.3783 61.8267L38.1334 56.3417Z" fill="#E22C38"/>
</g>
<g filter="url(#filter1_d_201_4397)">
<circle cx="33" cy="67" r="4" fill="white"/>
</g>
<circle cx="33" cy="67" r="2" fill="#E22C38"/>
<path fill-rule="evenodd" clip-rule="evenodd" d="M32.9984 40.6C38.3004 40.6 42.5984 36.302 42.5984 31C42.5984 25.6981 38.3004 21.4 32.9984 21.4C27.6965 21.4 23.3984 25.6981 23.3984 31C23.3984 36.302 27.6965 40.6 32.9984 40.6ZM29.3984 29.8C30.3925 29.8 31.1984 28.9941 31.1984 28C31.1984 27.0059 30.3925 26.2 29.3984 26.2C28.4043 26.2 27.5984 27.0059 27.5984 28C27.5984 28.9941 28.4043 29.8 29.3984 29.8ZM32.9977 37.72C35.909 37.72 38.1897 35.9638 38.9081 33.7112C38.9533 33.5696 38.8259 33.435 38.6794 33.461C37.9496 33.5903 35.9815 33.88 32.9984 33.88C30.0146 33.88 28.044 33.5901 27.3136 33.4609C27.1672 33.435 27.0398 33.5695 27.085 33.7111C27.8035 35.9638 30.0863 37.72 32.9977 37.72ZM36.5984 29.8C37.5926 29.8 38.3984 28.9941 38.3984 28C38.3984 27.0059 37.5926 26.2 36.5984 26.2C35.6043 26.2 34.7984 27.0059 34.7984 28C34.7984 28.9941 35.6043 29.8 36.5984 29.8Z" fill="white"/>
<defs>
<filter id="filter0_d_201_4397" x="0" y="0" width="66" height="70.9992" filterUnits="userSpaceOnUse" color-interpolation-filters="sRGB">
<feFlood flood-opacity="0" result="BackgroundImageFix"/>
<feColorMatrix in="SourceAlpha" type="matrix" values="0 0 0 0 0 0 0 0 0 0 0 0 0 0 0 0 0 0 127 0" result="hardAlpha"/>
<feOffset dy="1"/>
<feGaussianBlur stdDeviation="4"/>
<feColorMatrix type="matrix" values="0 0 0 0 0 0 0 0 0 0 0 0 0 0 0 0 0 0 0.1 0"/>
<feBlend mode="normal" in2="BackgroundImageFix" result="effect1_dropShadow_201_4397"/>
<feBlend mode="normal" in="SourceGraphic" in2="effect1_dropShadow_201_4397" result="shape"/>
</filter>
<filter id="filter1_d_201_4397" x="21" y="56" width="24" height="24" filterUnits="userSpaceOnUse" color-interpolation-filters="sRGB">
<feFlood flood-opacity="0" result="BackgroundImageFix"/>
<feColorMatrix in="SourceAlpha" type="matrix" values="0 0 0 0 0 0 0 0 0 0 0 0 0 0 0 0 0 0 127 0" result="hardAlpha"/>
<feOffset dy="1"/>
<feGaussianBlur stdDeviation="4"/>
<feColorMatrix type="matrix" values="0 0 0 0 0 0 0 0 0 0 0 0 0 0 0 0 0 0 0.08 0"/>
<feBlend mode="normal" in2="BackgroundImageFix" result="effect1_dropShadow_201_4397"/>
<feBlend mode="normal" in="SourceGraphic" in2="effect1_dropShadow_201_4397" result="shape"/>
</filter>
</defs>
</svg>
