<svg width="66" height="80" viewBox="0 0 66 80" fill="none" xmlns="http://www.w3.org/2000/svg">
<g filter="url(#filter0_d_201_4784)">
<path d="M38.1334 56.3417C38.6796 55.7116 39.4125 55.2773 40.2123 55.0411C50.5033 52.0027 58 42.6301 58 31.5389C58 17.9864 46.8071 7 33 7C19.1929 7 8 17.9864 8 31.5389C8 42.6305 15.4972 52.0033 25.7888 55.0414C26.5886 55.2776 27.3215 55.7119 27.8678 56.342L32.6227 61.8267C32.8221 62.0567 33.1789 62.0567 33.3783 61.8267L38.1334 56.3417Z" fill="#E22C38"/>
</g>
<g filter="url(#filter1_d_201_4784)">
<circle cx="33" cy="67" r="4" fill="white"/>
</g>
<circle cx="33" cy="67" r="2" fill="#E22C38"/>
<path d="M29.2216 32.8L24.6016 36.8H41.4016L35.5216 30.8L31.3216 34.8L29.2216 32.8Z" fill="white"/>
<ellipse cx="28.8" cy="29" rx="1.8" ry="1.8" fill="white"/>
<path fill-rule="evenodd" clip-rule="evenodd" d="M45 22.6666H21V25.3333V38.6666V41.3333H45V38.6666V25.3333V22.6666ZM42.3333 25.3333H23.6667L23.6667 38.6666H42.3333V25.3333Z" fill="white"/>
<defs>
<filter id="filter0_d_201_4784" x="0" y="0" width="66" height="70.9991" filterUnits="userSpaceOnUse" color-interpolation-filters="sRGB">
<feFlood flood-opacity="0" result="BackgroundImageFix"/>
<feColorMatrix in="SourceAlpha" type="matrix" values="0 0 0 0 0 0 0 0 0 0 0 0 0 0 0 0 0 0 127 0" result="hardAlpha"/>
<feOffset dy="1"/>
<feGaussianBlur stdDeviation="4"/>
<feColorMatrix type="matrix" values="0 0 0 0 0 0 0 0 0 0 0 0 0 0 0 0 0 0 0.1 0"/>
<feBlend mode="normal" in2="BackgroundImageFix" result="effect1_dropShadow_201_4784"/>
<feBlend mode="normal" in="SourceGraphic" in2="effect1_dropShadow_201_4784" result="shape"/>
</filter>
<filter id="filter1_d_201_4784" x="21" y="56" width="24" height="24" filterUnits="userSpaceOnUse" color-interpolation-filters="sRGB">
<feFlood flood-opacity="0" result="BackgroundImageFix"/>
<feColorMatrix in="SourceAlpha" type="matrix" values="0 0 0 0 0 0 0 0 0 0 0 0 0 0 0 0 0 0 127 0" result="hardAlpha"/>
<feOffset dy="1"/>
<feGaussianBlur stdDeviation="4"/>
<feColorMatrix type="matrix" values="0 0 0 0 0 0 0 0 0 0 0 0 0 0 0 0 0 0 0.08 0"/>
<feBlend mode="normal" in2="BackgroundImageFix" result="effect1_dropShadow_201_4784"/>
<feBlend mode="normal" in="SourceGraphic" in2="effect1_dropShadow_201_4784" result="shape"/>
</filter>
</defs>
</svg>
