<svg width="66" height="80" viewBox="0 0 66 80" fill="none" xmlns="http://www.w3.org/2000/svg">
<g filter="url(#filter0_d_201_4318)">
<path d="M38.1334 56.3417C38.6796 55.7116 39.4125 55.2773 40.2123 55.0411C50.5033 52.0027 58 42.6301 58 31.5389C58 17.9864 46.8071 7 33 7C19.1929 7 8 17.9864 8 31.5389C8 42.6305 15.4972 52.0033 25.7888 55.0414C26.5886 55.2776 27.3215 55.7119 27.8678 56.342L32.6227 61.8267C32.8221 62.0567 33.1789 62.0567 33.3783 61.8267L38.1334 56.3417Z" fill="#E22C38"/>
</g>
<g filter="url(#filter1_d_201_4318)">
<circle cx="33" cy="67" r="4" fill="white"/>
</g>
<circle cx="33" cy="67" r="2" fill="#E22C38"/>
<g clip-path="url(#clip0_201_4318)">
<path d="M26.37 30.1143V36.1143H29.0226V30.1143H26.37ZM31.6752 30.1143V36.1143H34.3279V30.1143H31.6752ZM24.6016 40.4H41.4016V37.8286H24.6016V40.4ZM36.9805 30.1143V36.1143H39.6331V30.1143H36.9805ZM33.0016 22.4L24.6016 26.6857V28.4H41.4016V26.6857L33.0016 22.4Z" fill="white"/>
</g>
<defs>
<filter id="filter0_d_201_4318" x="0" y="0" width="66" height="70.9992" filterUnits="userSpaceOnUse" color-interpolation-filters="sRGB">
<feFlood flood-opacity="0" result="BackgroundImageFix"/>
<feColorMatrix in="SourceAlpha" type="matrix" values="0 0 0 0 0 0 0 0 0 0 0 0 0 0 0 0 0 0 127 0" result="hardAlpha"/>
<feOffset dy="1"/>
<feGaussianBlur stdDeviation="4"/>
<feColorMatrix type="matrix" values="0 0 0 0 0 0 0 0 0 0 0 0 0 0 0 0 0 0 0.1 0"/>
<feBlend mode="normal" in2="BackgroundImageFix" result="effect1_dropShadow_201_4318"/>
<feBlend mode="normal" in="SourceGraphic" in2="effect1_dropShadow_201_4318" result="shape"/>
</filter>
<filter id="filter1_d_201_4318" x="21" y="56" width="24" height="24" filterUnits="userSpaceOnUse" color-interpolation-filters="sRGB">
<feFlood flood-opacity="0" result="BackgroundImageFix"/>
<feColorMatrix in="SourceAlpha" type="matrix" values="0 0 0 0 0 0 0 0 0 0 0 0 0 0 0 0 0 0 127 0" result="hardAlpha"/>
<feOffset dy="1"/>
<feGaussianBlur stdDeviation="4"/>
<feColorMatrix type="matrix" values="0 0 0 0 0 0 0 0 0 0 0 0 0 0 0 0 0 0 0.08 0"/>
<feBlend mode="normal" in2="BackgroundImageFix" result="effect1_dropShadow_201_4318"/>
<feBlend mode="normal" in="SourceGraphic" in2="effect1_dropShadow_201_4318" result="shape"/>
</filter>
<clipPath id="clip0_201_4318">
<rect width="24" height="24" fill="white" transform="translate(21 20)"/>
</clipPath>
</defs>
</svg>
