<svg width="66" height="80" viewBox="0 0 66 80" fill="none" xmlns="http://www.w3.org/2000/svg">
<g filter="url(#filter0_d_201_16043)">
<path d="M38.1334 56.3417C38.6796 55.7116 39.4125 55.2773 40.2123 55.0411C50.5033 52.0027 58 42.6301 58 31.5389C58 17.9864 46.8071 7 33 7C19.1929 7 8 17.9864 8 31.5389C8 42.6305 15.4972 52.0033 25.7888 55.0414C26.5886 55.2776 27.3215 55.7119 27.8678 56.342L32.6227 61.8267C32.8221 62.0567 33.1789 62.0567 33.3783 61.8267L38.1334 56.3417Z" fill="#E22C38"/>
</g>
<g filter="url(#filter1_d_201_16043)">
<circle cx="33" cy="67" r="4" fill="white"/>
</g>
<circle cx="33" cy="67" r="2" fill="#E22C38"/>
<g clip-path="url(#clip0_201_16043)">
<path d="M32.9976 34.4909C33.5201 34.4909 34.0085 34.3774 34.454 34.1592L38.3417 42.4H40.2008L35.8161 32.981C36.2016 32.4138 36.4244 31.733 36.4244 30.9999C36.4244 30.0741 36.0633 29.1862 35.4207 28.5315C34.778 27.8768 33.9064 27.509 32.9976 27.509C32.0887 27.509 31.2171 27.8768 30.5744 28.5315C29.9318 29.1862 29.5707 30.0741 29.5707 30.9999C29.5707 31.733 29.7935 32.4138 30.179 32.981L25.8008 42.4H27.6598L31.5412 34.1592C31.9866 34.3774 32.475 34.4909 32.9976 34.4909Z" fill="white"/>
<rect x="31.1992" y="20.8" width="3.6" height="3.6" fill="#FFFEFE"/>
<rect x="23.3984" y="25" width="3.6" height="3.6" fill="#FFFEFE"/>
<rect x="39" y="25" width="3.6" height="3.6" fill="#FFFEFE"/>
<rect x="23.3984" y="33.4" width="3.6" height="3.6" fill="#FFFEFE"/>
<rect x="39" y="33.4" width="3.6" height="3.6" fill="#FFFEFE"/>
<rect x="31.1992" y="37.6" width="3.6" height="3.6" fill="#FFFEFE"/>
<path fill-rule="evenodd" clip-rule="evenodd" d="M33 23.2C28.6922 23.2 25.2 26.6922 25.2 31C25.2 35.3078 28.6922 38.8 33 38.8C37.3078 38.8 40.8 35.3078 40.8 31C40.8 26.6922 37.3078 23.2 33 23.2ZM24 31C24 26.0294 28.0294 22 33 22C37.9706 22 42 26.0294 42 31C42 35.9706 37.9706 40 33 40C28.0294 40 24 35.9706 24 31Z" fill="white"/>
</g>
<defs>
<filter id="filter0_d_201_16043" x="0" y="0" width="66" height="70.9991" filterUnits="userSpaceOnUse" color-interpolation-filters="sRGB">
<feFlood flood-opacity="0" result="BackgroundImageFix"/>
<feColorMatrix in="SourceAlpha" type="matrix" values="0 0 0 0 0 0 0 0 0 0 0 0 0 0 0 0 0 0 127 0" result="hardAlpha"/>
<feOffset dy="1"/>
<feGaussianBlur stdDeviation="4"/>
<feColorMatrix type="matrix" values="0 0 0 0 0 0 0 0 0 0 0 0 0 0 0 0 0 0 0.1 0"/>
<feBlend mode="normal" in2="BackgroundImageFix" result="effect1_dropShadow_201_16043"/>
<feBlend mode="normal" in="SourceGraphic" in2="effect1_dropShadow_201_16043" result="shape"/>
</filter>
<filter id="filter1_d_201_16043" x="21" y="56" width="24" height="24" filterUnits="userSpaceOnUse" color-interpolation-filters="sRGB">
<feFlood flood-opacity="0" result="BackgroundImageFix"/>
<feColorMatrix in="SourceAlpha" type="matrix" values="0 0 0 0 0 0 0 0 0 0 0 0 0 0 0 0 0 0 127 0" result="hardAlpha"/>
<feOffset dy="1"/>
<feGaussianBlur stdDeviation="4"/>
<feColorMatrix type="matrix" values="0 0 0 0 0 0 0 0 0 0 0 0 0 0 0 0 0 0 0.08 0"/>
<feBlend mode="normal" in2="BackgroundImageFix" result="effect1_dropShadow_201_16043"/>
<feBlend mode="normal" in="SourceGraphic" in2="effect1_dropShadow_201_16043" result="shape"/>
</filter>
<clipPath id="clip0_201_16043">
<rect width="24" height="24" fill="white" transform="translate(21 19)"/>
</clipPath>
</defs>
</svg>
