<svg width="66" height="80" viewBox="0 0 66 80" fill="none" xmlns="http://www.w3.org/2000/svg">
<g filter="url(#filter0_d_201_4436)">
<path d="M38.1334 56.3417C38.6796 55.7116 39.4125 55.2773 40.2123 55.0411C50.5033 52.0027 58 42.6301 58 31.5389C58 17.9864 46.8071 7 33 7C19.1929 7 8 17.9864 8 31.5389C8 42.6305 15.4972 52.0033 25.7888 55.0414C26.5886 55.2776 27.3215 55.7119 27.8678 56.342L32.6227 61.8267C32.8221 62.0567 33.1789 62.0567 33.3783 61.8267L38.1334 56.3417Z" fill="#E22C38"/>
</g>
<g filter="url(#filter1_d_201_4436)">
<circle cx="33" cy="67" r="4" fill="white"/>
</g>
<circle cx="33" cy="67" r="2" fill="#E22C38"/>
<g clip-path="url(#clip0_201_4436)">
<path d="M28.7958 40.0897C26.4521 39.2211 24.5944 37.1907 24.0436 34.5523L22.2507 26.0725C21.9915 24.8999 22.7367 23.749 23.9032 23.4993L34.4553 21.2517L34.4877 21.2409C35.6434 21.0129 36.7774 21.762 37.015 22.9129L37.393 24.7262L42.0913 25.7359H42.1237C43.2577 25.9965 43.9922 27.1474 43.7545 28.2983L41.9617 36.789C41.0976 40.8823 37.0798 43.5098 32.9972 42.6303C31.2908 42.272 29.8435 41.3491 28.7958 40.0897ZM41.6376 27.8532L31.0855 25.5948L29.2927 34.0854V34.118C28.677 37.0278 30.5455 39.8942 33.4509 40.5131C36.3562 41.132 39.2291 39.2645 39.8448 36.3438L41.6376 27.8532ZM37.3174 36.8867C36.637 38.0484 35.2761 38.689 33.8937 38.3959C32.522 38.1027 31.5392 36.9627 31.3772 35.6272L37.3174 36.8867ZM36.2698 32.2505C36.6154 31.675 37.3498 31.371 38.0951 31.5339C38.8403 31.6859 39.3803 32.2613 39.4775 32.9345C39.1211 33.4991 38.3975 33.8031 37.6415 33.6294C36.8962 33.4882 36.3562 32.9128 36.2698 32.2505ZM30.9991 31.1213C31.3448 30.5458 32.0684 30.2418 32.8136 30.4047C33.5373 30.5567 34.1097 31.143 34.1961 31.8053C33.8397 32.3699 33.116 32.6848 32.3708 32.5436C31.6256 32.3591 31.0855 31.7836 30.9991 31.1213Z" fill="white"/>
</g>
<defs>
<filter id="filter0_d_201_4436" x="0" y="0" width="66" height="70.9992" filterUnits="userSpaceOnUse" color-interpolation-filters="sRGB">
<feFlood flood-opacity="0" result="BackgroundImageFix"/>
<feColorMatrix in="SourceAlpha" type="matrix" values="0 0 0 0 0 0 0 0 0 0 0 0 0 0 0 0 0 0 127 0" result="hardAlpha"/>
<feOffset dy="1"/>
<feGaussianBlur stdDeviation="4"/>
<feColorMatrix type="matrix" values="0 0 0 0 0 0 0 0 0 0 0 0 0 0 0 0 0 0 0.1 0"/>
<feBlend mode="normal" in2="BackgroundImageFix" result="effect1_dropShadow_201_4436"/>
<feBlend mode="normal" in="SourceGraphic" in2="effect1_dropShadow_201_4436" result="shape"/>
</filter>
<filter id="filter1_d_201_4436" x="21" y="56" width="24" height="24" filterUnits="userSpaceOnUse" color-interpolation-filters="sRGB">
<feFlood flood-opacity="0" result="BackgroundImageFix"/>
<feColorMatrix in="SourceAlpha" type="matrix" values="0 0 0 0 0 0 0 0 0 0 0 0 0 0 0 0 0 0 127 0" result="hardAlpha"/>
<feOffset dy="1"/>
<feGaussianBlur stdDeviation="4"/>
<feColorMatrix type="matrix" values="0 0 0 0 0 0 0 0 0 0 0 0 0 0 0 0 0 0 0.08 0"/>
<feBlend mode="normal" in2="BackgroundImageFix" result="effect1_dropShadow_201_4436"/>
<feBlend mode="normal" in="SourceGraphic" in2="effect1_dropShadow_201_4436" result="shape"/>
</filter>
<clipPath id="clip0_201_4436">
<rect width="24" height="24" fill="white" transform="translate(21 20)"/>
</clipPath>
</defs>
</svg>
