<svg width="66" height="80" viewBox="0 0 66 80" fill="none" xmlns="http://www.w3.org/2000/svg">
<g filter="url(#filter0_d_201_17886)">
<path d="M38.1334 56.3417C38.6796 55.7116 39.4125 55.2773 40.2123 55.0411C50.5033 52.0027 58 42.6301 58 31.5389C58 17.9864 46.8071 7 33 7C19.1929 7 8 17.9864 8 31.5389C8 42.6305 15.4972 52.0033 25.7888 55.0414C26.5886 55.2776 27.3215 55.7119 27.8678 56.342L32.6227 61.8267C32.8221 62.0567 33.1789 62.0567 33.3783 61.8267L38.1334 56.3417Z" fill="#E22C38"/>
</g>
<g filter="url(#filter1_d_201_17886)">
<circle cx="33" cy="67" r="4" fill="white"/>
</g>
<circle cx="33" cy="67" r="2" fill="#E22C38"/>
<g clip-path="url(#clip0_201_17886)">
<path d="M30.1314 25.7073C28.8763 26.2258 27.7611 27.0885 26.9455 28.1821C26.0653 29.3623 25.668 31.1979 25.668 32.6905C25.668 34.578 26.9117 37.9422 29.7884 42.6896C29.9053 42.8824 30.1142 43.0001 30.3397 43.0001H35.6629C35.8882 43.0001 36.0973 42.8823 36.2141 42.6896C38.1343 39.521 39.4216 36.9695 40.0662 35.0609C40.5846 32.5424 40.7113 30.404 39.0541 28.1822C38.2385 27.0886 37.1233 26.2258 35.8682 25.7074L37.0673 21.8352C37.1278 21.6396 37.0919 21.4269 36.9704 21.2621C36.8489 21.0973 36.6564 21 36.4516 21H29.548C29.3433 21 29.1507 21.0973 29.0292 21.2621C28.9077 21.4269 28.8718 21.6396 28.9323 21.8352L30.1314 25.7073Z" fill="white"/>
</g>
<defs>
<filter id="filter0_d_201_17886" x="0" y="0" width="66" height="70.9991" filterUnits="userSpaceOnUse" color-interpolation-filters="sRGB">
<feFlood flood-opacity="0" result="BackgroundImageFix"/>
<feColorMatrix in="SourceAlpha" type="matrix" values="0 0 0 0 0 0 0 0 0 0 0 0 0 0 0 0 0 0 127 0" result="hardAlpha"/>
<feOffset dy="1"/>
<feGaussianBlur stdDeviation="4"/>
<feColorMatrix type="matrix" values="0 0 0 0 0 0 0 0 0 0 0 0 0 0 0 0 0 0 0.1 0"/>
<feBlend mode="normal" in2="BackgroundImageFix" result="effect1_dropShadow_201_17886"/>
<feBlend mode="normal" in="SourceGraphic" in2="effect1_dropShadow_201_17886" result="shape"/>
</filter>
<filter id="filter1_d_201_17886" x="21" y="56" width="24" height="24" filterUnits="userSpaceOnUse" color-interpolation-filters="sRGB">
<feFlood flood-opacity="0" result="BackgroundImageFix"/>
<feColorMatrix in="SourceAlpha" type="matrix" values="0 0 0 0 0 0 0 0 0 0 0 0 0 0 0 0 0 0 127 0" result="hardAlpha"/>
<feOffset dy="1"/>
<feGaussianBlur stdDeviation="4"/>
<feColorMatrix type="matrix" values="0 0 0 0 0 0 0 0 0 0 0 0 0 0 0 0 0 0 0.08 0"/>
<feBlend mode="normal" in2="BackgroundImageFix" result="effect1_dropShadow_201_17886"/>
<feBlend mode="normal" in="SourceGraphic" in2="effect1_dropShadow_201_17886" result="shape"/>
</filter>
<clipPath id="clip0_201_17886">
<rect width="22" height="22" fill="white" transform="matrix(-1 0 0 1 44 21)"/>
</clipPath>
</defs>
</svg>
