<svg width="32" height="37" viewBox="0 0 32 37" fill="none" xmlns="http://www.w3.org/2000/svg">
<path d="M19.3898 31.909C19.6683 31.4907 20.0959 31.1978 20.5778 31.0554C27.1837 29.104 32 23.0379 32 15.857C32 7.09941 24.8366 0 16 0C7.16344 0 0 7.09941 0 15.857C0 23.0381 4.81667 29.1044 11.4229 31.0556C11.9048 31.1979 12.3325 31.4909 12.611 31.9092L15.5841 36.3749C15.782 36.6721 16.2186 36.6721 16.4165 36.3749L19.3898 31.909Z" fill="#336AF7"/>
<path fill-rule="evenodd" clip-rule="evenodd" d="M7.68359 15.0013V15.8346V22.5013C7.68359 22.9621 8.05693 23.3346 8.51693 23.3346H14.3503V18.3346C14.3503 17.4146 15.0969 16.6679 16.0169 16.6679C16.9369 16.6679 17.6836 17.4146 17.6836 18.3346V23.3346H23.5169C23.9769 23.3346 24.3503 22.9621 24.3503 22.5013V15.8346V15.0013H7.68359Z" fill="white"/>
<rect x="7.68359" y="12.5013" width="16.6667" height="1.66667" fill="white"/>
<rect x="12.6836" y="10.0013" width="6.66667" height="1.66667" fill="white"/>
<path d="M16.0182 9.16797L17.4616 7.29297H14.5749L16.0182 9.16797Z" fill="white"/>
</svg>
