<svg width="32" height="32" viewBox="0 0 32 32" fill="none" xmlns="http://www.w3.org/2000/svg">
<path fill-rule="evenodd" clip-rule="evenodd" d="M5 8H27V25H5V8ZM6 9V24H26V9H6Z" fill="white"/>
<g clip-path="url(#clip0_201_4134)">
<path d="M6 9H26V24H6V9Z" fill="#262626"/>
<path d="M16.8207 19.1858H15.2122V20.2221H13.6948V19.1858H12.668V17.8877H13.6948V17.4817H12.668V16.1837H13.6948V12.4443H16.5577C17.1107 12.4443 17.5963 12.5494 18.0145 12.7595C18.4326 12.9696 18.7563 13.2705 18.9856 13.6623C19.2183 14.0505 19.3346 14.4938 19.3346 14.9924C19.3346 15.7616 19.0868 16.3688 18.5911 16.814C18.0988 17.2592 17.4125 17.4817 16.5324 17.4817H15.2122V17.8877H16.8207V19.1858ZM15.2122 16.1837H16.5223C17.3721 16.1837 17.797 15.7901 17.797 15.0031C17.797 14.6292 17.689 14.3282 17.4732 14.1003C17.2574 13.8688 16.959 13.7513 16.5779 13.7478H15.2122V16.1837Z" fill="white"/>
</g>
<defs>
<clipPath id="clip0_201_4134">
<rect width="20" height="15" fill="white" transform="translate(6 9)"/>
</clipPath>
</defs>
</svg>
