<svg width="32" height="32" viewBox="0 0 32 32" fill="none" xmlns="http://www.w3.org/2000/svg">
<path d="M7.81818 11C6.80909 11 6 11.8158 6 12.8333V19.25H7.81818C7.81818 19.9793 8.10552 20.6788 8.61698 21.1945C9.12844 21.7103 9.82214 22 10.5455 22C11.2688 22 11.9625 21.7103 12.4739 21.1945C12.9854 20.6788 13.2727 19.9793 13.2727 19.25H18.7273C18.7273 19.9793 19.0146 20.6788 19.5261 21.1945C20.0375 21.7103 20.7312 22 21.4545 22C22.1779 22 22.8716 21.7103 23.383 21.1945C23.8945 20.6788 24.1818 19.9793 24.1818 19.25H26V12.8333C26 11.8158 25.1909 11 24.1818 11H7.81818ZM7.36364 12.375H11V14.6667H7.36364V12.375ZM12.3636 12.375H16V14.6667H12.3636V12.375ZM17.3636 12.375H21V14.6667H17.3636V12.375ZM22.3636 12.375H24.6364V17.4167L22.3636 15.5833V12.375ZM10.5455 17.875C10.9071 17.875 11.254 18.0199 11.5097 18.2777C11.7654 18.5356 11.9091 18.8853 11.9091 19.25C11.9091 19.6147 11.7654 19.9644 11.5097 20.2223C11.254 20.4801 10.9071 20.625 10.5455 20.625C10.1838 20.625 9.83695 20.4801 9.58122 20.2223C9.32549 19.9644 9.18182 19.6147 9.18182 19.25C9.18182 18.8853 9.32549 18.5356 9.58122 18.2777C9.83695 18.0199 10.1838 17.875 10.5455 17.875ZM21.4545 17.875C21.8162 17.875 22.163 18.0199 22.4188 18.2777C22.6745 18.5356 22.8182 18.8853 22.8182 19.25C22.8182 19.6147 22.6745 19.9644 22.4188 20.2223C22.163 20.4801 21.8162 20.625 21.4545 20.625C21.0929 20.625 20.746 20.4801 20.4903 20.2223C20.2346 19.9644 20.0909 19.6147 20.0909 19.25C20.0909 18.8853 20.2346 18.5356 20.4903 18.2777C20.746 18.0199 21.0929 17.875 21.4545 17.875Z" fill="#262626"/>
<path fill-rule="evenodd" clip-rule="evenodd" d="M5 20.25V12.8333C5 11.2714 6.249 10 7.81818 10H24.1818C25.751 10 27 11.2714 27 12.8333V20.25H25.0469C24.8771 20.8673 24.5513 21.4366 24.0931 21.8987C23.3947 22.6029 22.4458 23 21.4545 23C20.4633 23 19.5144 22.6029 18.816 21.8987C18.3578 21.4366 18.032 20.8673 17.8622 20.25H14.1378C13.968 20.8673 13.6422 21.4366 13.184 21.8987C12.4856 22.6029 11.5367 23 10.5455 23C9.55423 23 8.6053 22.6029 7.90695 21.8987C7.4487 21.4366 7.12291 20.8673 6.95315 20.25H5ZM13.2727 19.25H18.7273C18.7273 19.9793 19.0146 20.6788 19.5261 21.1945C20.0375 21.7103 20.7312 22 21.4545 22C22.1779 22 22.8716 21.7103 23.383 21.1945C23.8945 20.6788 24.1818 19.9793 24.1818 19.25H26V12.8333C26 12.4176 25.8649 12.0356 25.6364 11.7291C25.5368 11.5956 25.4195 11.4764 25.2879 11.375C24.9821 11.1395 24.599 11 24.1818 11H7.81818C7.40096 11 7.01792 11.1395 6.71213 11.375C6.58051 11.4764 6.4632 11.5956 6.36364 11.7291C6.13506 12.0356 6 12.4176 6 12.8333V19.25H7.81818C7.81818 19.9793 8.10552 20.6788 8.61698 21.1945C9.12844 21.7103 9.82214 22 10.5455 22C11.2688 22 11.9625 21.7103 12.4739 21.1945C12.9854 20.6788 13.2727 19.9793 13.2727 19.25ZM24.6364 12.375H22.3636V15.5833L24.6364 17.4167V12.375ZM23.6364 15.3252V13.375H23.3636V15.1052L23.6364 15.3252ZM10 13.375H8.36364V13.6667H10V13.375ZM15 13.375H13.3636V13.6667H15V13.375ZM20 13.375H18.3636V13.6667H20V13.375ZM10.7997 18.9819C10.7308 18.9125 10.6392 18.875 10.5455 18.875C10.4517 18.875 10.3601 18.9125 10.2913 18.9819C10.2221 19.0516 10.1818 19.1479 10.1818 19.25C10.1818 19.3521 10.2221 19.4484 10.2913 19.5181C10.3601 19.5875 10.4517 19.625 10.5455 19.625C10.6392 19.625 10.7308 19.5875 10.7997 19.5181C10.8688 19.4484 10.9091 19.3521 10.9091 19.25C10.9091 19.1479 10.8688 19.0516 10.7997 18.9819ZM21.7087 18.9819C21.6399 18.9125 21.5483 18.875 21.4545 18.875C21.3608 18.875 21.2692 18.9125 21.2003 18.9819C21.1312 19.0516 21.0909 19.1479 21.0909 19.25C21.0909 19.3521 21.1312 19.4484 21.2003 19.5181C21.2692 19.5875 21.3608 19.625 21.4545 19.625C21.5483 19.625 21.6399 19.5875 21.7087 19.5181C21.7779 19.4484 21.8182 19.3521 21.8182 19.25C21.8182 19.1479 21.7779 19.0516 21.7087 18.9819ZM7.36364 12.375V14.6667H11V12.375H7.36364ZM12.3636 12.375V14.6667H16V12.375H12.3636ZM17.3636 12.375V14.6667H21V12.375H17.3636ZM11.5097 18.2777C11.254 18.0199 10.9071 17.875 10.5455 17.875C10.1838 17.875 9.83695 18.0199 9.58122 18.2777C9.32549 18.5356 9.18182 18.8853 9.18182 19.25C9.18182 19.6147 9.32549 19.9644 9.58122 20.2223C9.83695 20.4801 10.1838 20.625 10.5455 20.625C10.9071 20.625 11.254 20.4801 11.5097 20.2223C11.7654 19.9644 11.9091 19.6147 11.9091 19.25C11.9091 18.8853 11.7654 18.5356 11.5097 18.2777ZM22.4188 18.2777C22.163 18.0199 21.8162 17.875 21.4545 17.875C21.0929 17.875 20.746 18.0199 20.4903 18.2777C20.2346 18.5356 20.0909 18.8853 20.0909 19.25C20.0909 19.6147 20.2346 19.9644 20.4903 20.2223C20.746 20.4801 21.0929 20.625 21.4545 20.625C21.8162 20.625 22.163 20.4801 22.4188 20.2223C22.6745 19.9644 22.8182 19.6147 22.8182 19.25C22.8182 18.8853 22.6745 18.5356 22.4188 18.2777Z" fill="white"/>
</svg>
