<svg width="33" height="37" viewBox="0 0 33 37" fill="none" xmlns="http://www.w3.org/2000/svg">
<path d="M19.3898 31.909C19.6683 31.4907 20.0959 31.1978 20.5778 31.0554C27.1837 29.104 32 23.0379 32 15.857C32 7.09941 24.8366 0 16 0C7.16344 0 0 7.09941 0 15.857C0 23.0381 4.81667 29.1044 11.4229 31.0556C11.9048 31.1979 12.3325 31.4909 12.611 31.9092L15.5841 36.3749C15.782 36.6721 16.2186 36.6721 16.4165 36.3749L19.3898 31.909Z" fill="#E8773F"/>
<path d="M7.66797 23.5H22.668V21.8333H7.66797V23.5ZM22.668 13.6667H21.0013V11.1667H22.668V13.6667ZM22.668 9.5H9.33464V16.8333C9.33464 17.7174 9.68582 18.5652 10.3109 19.1904C10.9361 19.8155 11.7839 20.1667 12.668 20.1667H17.668C18.552 20.1667 19.3999 19.8155 20.025 19.1904C20.6501 18.5652 21.0013 17.7174 21.0013 16.8333V15.3333H22.668C23.11 15.3333 23.5339 15.1577 23.8465 14.8452C24.159 14.5326 24.3346 14.1087 24.3346 13.6667V11.1667C24.3346 10.2417 23.5846 9.5 22.668 9.5Z" fill="white"/>
</svg>
