<svg width="32" height="37" viewBox="0 0 32 37" fill="none" xmlns="http://www.w3.org/2000/svg">
<path d="M19.3898 31.909C19.6683 31.4907 20.0959 31.1978 20.5778 31.0554C27.1837 29.104 32 23.0379 32 15.857C32 7.09941 24.8366 0 16 0C7.16344 0 0 7.09941 0 15.857C0 23.0381 4.81667 29.1044 11.4228 31.0556C11.9048 31.1979 12.3325 31.4909 12.611 31.9093L15.5841 36.3749C15.782 36.6721 16.2186 36.6721 16.4165 36.3749L19.3898 31.909Z" fill="#F0AF18"/>
<g clip-path="url(#clip0_201_3771)">
<path d="M22.2992 25H9.69922V23.2H22.2992V25ZM16.8992 7C15.7742 7 14.7212 7.558 14.1002 8.494L11.4992 12.4L13.2992 14.2L15.1532 12.967C15.5492 12.688 16.1252 12.796 16.4042 13.21C16.4222 13.237 16.4492 13.264 16.4492 13.3C16.7192 13.831 16.6202 14.47 16.1972 14.893L11.8772 19.213C11.3822 19.717 11.3822 20.527 11.8862 21.022C12.1202 21.256 12.4442 21.4 12.7772 21.4H20.4992V10.6C20.4992 9.64522 20.1199 8.72955 19.4448 8.05442C18.7697 7.37928 17.854 7 16.8992 7Z" fill="white"/>
</g>
<defs>
<clipPath id="clip0_201_3771">
<rect width="18" height="18" fill="white" transform="translate(7 7)"/>
</clipPath>
</defs>
</svg>
