<svg width="32" height="37" viewBox="0 0 32 37" fill="none" xmlns="http://www.w3.org/2000/svg">
<path d="M19.3898 31.909C19.6683 31.4907 20.0959 31.1978 20.5778 31.0554C27.1837 29.104 32 23.0379 32 15.857C32 7.09941 24.8366 0 16 0C7.16344 0 0 7.09941 0 15.857C0 23.0381 4.81667 29.1044 11.4228 31.0556C11.9048 31.1979 12.3325 31.4909 12.611 31.9093L15.5841 36.3749C15.782 36.6721 16.2186 36.6721 16.4165 36.3749L19.3898 31.909Z" fill="#F0AF18"/>
<g clip-path="url(#clip0_201_3899)">
<path d="M21.25 8V9.66667H19.5V8H12.5V9.66667H10.75V8H9V23H10.75V21.3333H12.5V23H19.5V21.3333H21.25V23H23V8H21.25ZM12.5 19.6667H10.75V18H12.5V19.6667ZM12.5 16.3333H10.75V14.6667H12.5V16.3333ZM12.5 13H10.75V11.3333H12.5V13ZM21.25 19.6667H19.5V18H21.25V19.6667ZM21.25 16.3333H19.5V14.6667H21.25V16.3333ZM21.25 13H19.5V11.3333H21.25V13Z" fill="white"/>
</g>
<defs>
<clipPath id="clip0_201_3899">
<rect width="20" height="20" fill="white" transform="translate(6 6)"/>
</clipPath>
</defs>
</svg>
