<svg width="32" height="37" viewBox="0 0 32 37" fill="none" xmlns="http://www.w3.org/2000/svg">
<path d="M19.3898 31.909C19.6683 31.4907 20.0959 31.1978 20.5778 31.0554C27.1837 29.104 32 23.0379 32 15.857C32 7.09941 24.8366 0 16 0C7.16344 0 0 7.09941 0 15.857C0 23.0381 4.81667 29.1044 11.4228 31.0556C11.9048 31.1979 12.3325 31.4909 12.611 31.9093L15.5841 36.3749C15.782 36.6721 16.2186 36.6721 16.4165 36.3749L19.3898 31.909Z" fill="#F0AF18"/>
<path d="M20.4457 19.7779C20.4457 19.7779 18.8999 20.9555 18.2235 21.3314C18.0017 20.5915 17.7934 19.3102 17.6147 18.5114L17.6298 13.9432C17.6298 13.9432 20.1098 13.6157 20.8255 13.5072C21.588 13.4361 21.7048 12.7653 21.5424 12.2944C21.5031 12.1799 20.3331 8.77661 20.3331 8.77661L18.5686 9.30292L19.4202 11.8901L17.2476 12.1833C17.2476 12.1833 15.4457 12.4395 14.6123 11.8901C12.9013 10.7625 11.5569 7.55566 11.5569 7.55566L10.168 8.16567C10.168 8.16567 13.0054 13.2425 13.1145 13.7324C13.2235 14.2223 14.001 16.1323 13.1145 18.2547C11.8943 21.176 13.7791 25.889 13.7791 25.889L15.4818 25.3132C15.4818 25.3132 14.3346 22.0001 14.6226 20.1775C14.6943 19.8557 14.9857 19.6298 15.3154 19.6417C15.6259 19.6528 15.8901 19.8711 15.959 20.1737C16.155 21.0297 16.2519 21.8637 16.4001 22.3844C16.6904 23.4024 17.7056 23.5827 18.3518 23.2429C19.6656 22.5524 21.4326 21.3314 21.4326 21.3314L20.4457 19.7779Z" fill="white"/>
<path d="M15.8083 11.3032C16.7401 11.3032 17.4954 10.5478 17.4954 9.616C17.4954 8.6842 16.7401 7.92883 15.8083 7.92883C14.8765 7.92883 14.1211 8.6842 14.1211 9.616C14.1211 10.5478 14.8765 11.3032 15.8083 11.3032Z" fill="white"/>
</svg>
