<svg width="32" height="37" viewBox="0 0 32 37" fill="none" xmlns="http://www.w3.org/2000/svg">
<path d="M19.3898 31.909C19.6683 31.4907 20.0959 31.1978 20.5778 31.0554C27.1837 29.104 32 23.0379 32 15.857C32 7.09941 24.8366 0 16 0C7.16344 0 0 7.09941 0 15.857C0 23.0381 4.81667 29.1044 11.4228 31.0556C11.9048 31.1979 12.3325 31.4909 12.611 31.9093L15.5841 36.3749C15.782 36.6721 16.2186 36.6721 16.4165 36.3749L19.3898 31.909Z" fill="#F0AF18"/>
<path fill-rule="evenodd" clip-rule="evenodd" d="M16 24C20.4183 24 24 20.4183 24 16C24 11.5817 20.4183 8 16 8C11.5817 8 8 11.5817 8 16C8 20.4183 11.5817 24 16 24ZM13 15C13.8284 15 14.5 14.3284 14.5 13.5C14.5 12.6716 13.8284 12 13 12C12.1716 12 11.5 12.6716 11.5 13.5C11.5 14.3284 12.1716 15 13 15ZM15.9993 21.6C18.4033 21.6 20.2913 20.1631 20.908 18.3106C20.9549 18.1696 20.8277 18.0348 20.6811 18.0601C20.0342 18.1718 18.4169 18.4 16 18.4C13.5824 18.4 11.963 18.1716 11.3156 18.06C11.1691 18.0347 11.0419 18.1695 11.0889 18.3105C11.7056 20.163 13.5953 21.6 15.9993 21.6ZM19 15C19.8284 15 20.5 14.3284 20.5 13.5C20.5 12.6716 19.8284 12 19 12C18.1716 12 17.5 12.6716 17.5 13.5C17.5 14.3284 18.1716 15 19 15Z" fill="white"/>
</svg>
