<svg width="32" height="32" viewBox="0 0 32 32" fill="none" xmlns="http://www.w3.org/2000/svg">
<g clip-path="url(#clip0_201_4255)">
<g clip-path="url(#clip1_201_4255)">
<path d="M23.2 9.88614H12.598C11.599 8.77914 9.889 8.69814 8.8 9.70614C8.224 10.2101 7.9 10.9301 7.9 11.6861V19.7861C7.66131 19.7861 7.43239 19.881 7.2636 20.0497C7.09482 20.2185 7 20.4474 7 20.6861V21.5861H14.2V20.6861C14.2 20.4474 14.1052 20.2185 13.9364 20.0497C13.7676 19.881 13.5387 19.7861 13.3 19.7861V13.4861H23.2C23.6774 13.4861 24.1352 13.2965 24.4728 12.9589C24.8104 12.6214 25 12.1635 25 11.6861C25 11.2088 24.8104 10.7509 24.4728 10.4134C24.1352 10.0758 23.6774 9.88614 23.2 9.88614ZM10.6 13.0361C10.242 13.0361 9.89858 12.8939 9.64541 12.6407C9.39223 12.3876 9.25 12.0442 9.25 11.6861C9.25 11.3281 9.39223 10.9847 9.64541 10.7315C9.89858 10.4784 10.242 10.3361 10.6 10.3361C10.958 10.3361 11.3014 10.4784 11.5546 10.7315C11.8078 10.9847 11.95 11.3281 11.95 11.6861C11.95 12.0442 11.8078 12.3876 11.5546 12.6407C11.3014 12.8939 10.958 13.0361 10.6 13.0361ZM14.65 12.5861L13.3 10.7861H14.65L16 12.5861H14.65ZM18.25 12.5861L16.9 10.7861H18.25L19.6 12.5861H18.25ZM21.85 12.5861L20.5 10.7861H21.85L23.2 12.5861H21.85Z" fill="#262626"/>
<path fill-rule="evenodd" clip-rule="evenodd" d="M7.00557 20.5861C7.02814 20.3842 7.11856 20.1948 7.2636 20.0497C7.43239 19.8809 7.66131 19.7861 7.9 19.7861V11.6861C7.9 10.9301 8.224 10.2101 8.8 9.70612C9.85524 8.72938 11.4936 8.77515 12.5031 9.78612C12.5354 9.81847 12.567 9.8518 12.598 9.88612H23.2C23.6774 9.88612 24.1352 10.0758 24.4728 10.4133C24.8104 10.7509 25 11.2087 25 11.6861C25 12.0932 24.8621 12.4861 24.6121 12.8023C24.569 12.8569 24.5225 12.9092 24.4728 12.9589C24.1352 13.2965 23.6774 13.4861 23.2 13.4861H13.3V19.7861C13.5387 19.7861 13.7676 19.8809 13.9364 20.0497C14.0814 20.1948 14.1719 20.3842 14.1944 20.5861C14.1981 20.6192 14.2 20.6526 14.2 20.6861V21.5861H7V20.6861C7 20.6526 7.00188 20.6192 7.00557 20.5861ZM14.3 19.0706C14.4236 19.1471 14.539 19.2381 14.6435 19.3426C14.9998 19.6989 15.2 20.1822 15.2 20.6861V22.5861H6V20.6861C6 20.1822 6.20018 19.6989 6.5565 19.3426C6.66098 19.2381 6.77637 19.1471 6.9 19.0706V11.6861C6.9 10.6469 7.34412 9.65659 8.13098 8.96279C9.51507 7.69122 11.6126 7.69288 13.0023 8.88612H23.2C23.9426 8.88612 24.6548 9.18112 25.1799 9.70623C25.705 10.2313 26 10.9435 26 11.6861C26 12.4287 25.705 13.1409 25.1799 13.666C24.6548 14.1911 23.9426 14.4861 23.2 14.4861H14.3V19.0706ZM14.65 12.5861H16L14.65 10.7861H13.3L14.65 12.5861ZM18.25 12.5861H19.6L18.25 10.7861H16.9L18.25 12.5861ZM21.85 12.5861H23.2L21.85 10.7861H20.5L21.85 12.5861ZM10.3525 11.9336C10.4181 11.9992 10.5072 12.0361 10.6 12.0361C10.6928 12.0361 10.7818 11.9992 10.8475 11.9336C10.9131 11.868 10.95 11.779 10.95 11.6861C10.95 11.5933 10.9131 11.5043 10.8475 11.4386C10.7818 11.373 10.6928 11.3361 10.6 11.3361C10.5072 11.3361 10.4181 11.373 10.3525 11.4386C10.2869 11.5043 10.25 11.5933 10.25 11.6861C10.25 11.779 10.2869 11.868 10.3525 11.9336ZM9.64541 12.6407C9.89858 12.8939 10.242 13.0361 10.6 13.0361C10.958 13.0361 11.3014 12.8939 11.5546 12.6407C11.8078 12.3875 11.95 12.0442 11.95 11.6861C11.95 11.3281 11.8078 10.9847 11.5546 10.7315C11.3014 10.4784 10.958 10.3361 10.6 10.3361C10.242 10.3361 9.89858 10.4784 9.64541 10.7315C9.39223 10.9847 9.25 11.3281 9.25 11.6861C9.25 12.0442 9.39223 12.3875 9.64541 12.6407Z" fill="white"/>
</g>
</g>
<defs>
<clipPath id="clip0_201_4255">
<rect width="20" height="20" fill="white" transform="translate(6 6)"/>
</clipPath>
<clipPath id="clip1_201_4255">
<rect width="20" height="20" fill="white" transform="translate(6 6)"/>
</clipPath>
</defs>
</svg>
