<svg width="32" height="32" viewBox="0 0 32 32" fill="none" xmlns="http://www.w3.org/2000/svg">
<g clip-path="url(#clip0_201_4216)">
<path d="M13 10.4054H24V13.3243H13V16.7297L8 11.8649L13 7V10.4054ZM19 18.6757V15.2703L24 20.1351L19 25V21.5946H8V18.6757H19Z" fill="#262626"/>
<path fill-rule="evenodd" clip-rule="evenodd" d="M13.0004 6.99998V10.4054H24.0004V13.3243H13.0004V16.7297L8.0004 11.8648L13.0004 6.99998ZM14.0004 14.3243V17.6757H18.0004V14.3243H14.0004ZM19.4622 14.3243L25.4344 20.1351L18.0004 27.3682V22.5946H7.0004V17.6757H12.5386L6.56641 11.8648L14.0004 4.63177V9.40539H25.0004V14.3243H19.4622ZM8.0004 18.6757V21.5946H19.0004V25L24.0004 20.1351L19.0004 15.2703V18.6757H8.0004Z" fill="white"/>
</g>
<defs>
<clipPath id="clip0_201_4216">
<rect width="24" height="24" fill="white" transform="translate(4 4)"/>
</clipPath>
</defs>
</svg>
