<svg width="32" height="37" viewBox="0 0 32 37" fill="none" xmlns="http://www.w3.org/2000/svg">
<path d="M19.3898 31.909C19.6683 31.4907 20.0959 31.1978 20.5778 31.0554C27.1837 29.104 32 23.0379 32 15.857C32 7.09941 24.8366 0 16 0C7.16344 0 0 7.09941 0 15.857C0 23.0381 4.81667 29.1044 11.4228 31.0556C11.9048 31.1979 12.3325 31.4909 12.611 31.9093L15.5841 36.3749C15.782 36.6721 16.2186 36.6721 16.4165 36.3749L19.3898 31.909Z" fill="#59B36A"/>
<path d="M13.1014 10.1671C13.1014 10.1671 14.8177 5.53209 15.6304 6.0387C16.443 6.5453 16.5452 7.82051 15.9121 9.09511C15.3255 10.2763 14.5707 11.1325 14.5707 11.1325C15.0825 11.5547 15.1968 12.7383 14.7632 13.6915C14.7632 13.6915 17.2018 13.1909 19.5798 14.6571C21.9583 16.1236 23 18.2784 23 20.089C23 21.8994 22.4583 24 20.5195 24H15.1711C15.0512 24 14.9526 23.9024 14.9676 23.7834C15.0639 23.0322 15.6825 22.617 16.8335 22.617C16.1843 22.4676 15.4378 21.5258 15.3415 20.9584C14.4771 21.8826 14.0266 23.2672 13.8792 23.7898C13.8468 23.9054 13.7271 24 13.6074 24H11.9212C11.7219 24 11.5479 23.8338 11.6022 23.6414C11.8077 22.9162 12.6918 23.3996 12.6918 20.6206C12.6918 19.1118 9.95831 18.0436 11.1263 14.5127C11.1263 14.5127 8.85654 14.4405 9.00718 13.0157C9.15782 11.5911 11.6746 9.87772 13.1014 10.1671Z" fill="white"/>
</svg>
