<svg width="33" height="37" viewBox="0 0 33 37" fill="none" xmlns="http://www.w3.org/2000/svg">
<path d="M19.3898 31.909C19.6683 31.4907 20.0959 31.1978 20.5778 31.0554C27.1837 29.104 32 23.0379 32 15.857C32 7.09941 24.8366 0 16 0C7.16344 0 0 7.09941 0 15.857C0 23.0381 4.81667 29.1044 11.4229 31.0556C11.9048 31.1979 12.3325 31.4909 12.611 31.9092L15.5841 36.3749C15.782 36.6721 16.2186 36.6721 16.4165 36.3749L19.3898 31.909Z" fill="#E8773F"/>
<g clip-path="url(#clip0_201_4075)">
<path d="M20.4073 23H21.6145C22.2255 23 22.7273 22.5343 22.8 21.9377L24 9.94679H20.3636V7H18.9309V9.94679H15.3164L15.5345 11.6494C16.7782 11.9914 17.9418 12.6098 18.64 13.2938C19.6873 14.327 20.4073 15.3965 20.4073 17.1428V23ZM8 22.2724V21.5521H18.9309V22.2724C18.9309 22.6726 18.6036 23 18.1964 23H8.73455C8.32727 23 8 22.6726 8 22.2724ZM18.9309 17.1792C18.9309 11.3583 8 11.3583 8 17.1792H18.9309ZM8.01455 18.6417H18.9236V20.0969H8.01455V18.6417Z" fill="white"/>
</g>
<defs>
<clipPath id="clip0_201_4075">
<rect width="20" height="20" fill="white" transform="translate(6 6)"/>
</clipPath>
</defs>
</svg>
