<svg width="32" height="32" viewBox="0 0 32 32" fill="none" xmlns="http://www.w3.org/2000/svg">
<path d="M22.2222 8H9.77778C8.8 8 8.00889 8.8 8.00889 9.77778L8 22.2222C8 23.2 8.8 24 9.77778 24H22.2222C23.2 24 24 23.2 24 22.2222V9.77778C24 8.8 23.2 8 22.2222 8ZM21.3333 17.7778H17.7778V21.3333H14.2222V17.7778H10.6667V14.2222H14.2222V10.6667H17.7778V14.2222H21.3333V17.7778Z" fill="#262626"/>
<path fill-rule="evenodd" clip-rule="evenodd" d="M8 22.2222L8.00889 9.77778C8.00889 8.8 8.8 8 9.77778 8H22.2222C23.2 8 24 8.8 24 9.77778V22.2222C24 23.2 23.2 24 22.2222 24H9.77778C8.8 24 8 23.2 8 22.2222ZM7.00889 9.77778L7 22.2215C7 23.7516 8.24772 25 9.77778 25H22.2222C23.7523 25 25 23.7523 25 22.2222V9.77778C25 8.24772 23.7523 7 22.2222 7H9.77778C8.24144 7 7.00927 8.25457 7.00889 9.77778ZM17.7778 14.2222V10.6667H14.2222V14.2222H10.6667V17.7778H14.2222V21.3333H17.7778V17.7778H21.3333V14.2222H17.7778Z" fill="white"/>
</svg>
