<svg width="32" height="37" viewBox="0 0 32 37" fill="none" xmlns="http://www.w3.org/2000/svg">
<path d="M19.3898 31.909C19.6683 31.4907 20.0959 31.1978 20.5778 31.0554C27.1837 29.104 32 23.0379 32 15.857C32 7.09941 24.8366 0 16 0C7.16344 0 0 7.09941 0 15.857C0 23.0381 4.81667 29.1044 11.4229 31.0556C11.9048 31.1979 12.3325 31.4909 12.611 31.9092L15.5841 36.3749C15.782 36.6721 16.2186 36.6721 16.4165 36.3749L19.3898 31.909Z" fill="#336AF7"/>
<g clip-path="url(#clip0_201_3825)">
<path d="M12.4 8C9.976 8 8 9.968 8 12.4V12.8H9.6V12.4C9.6 11.6574 9.895 10.9452 10.4201 10.4201C10.9452 9.895 11.6574 9.6 12.4 9.6C13.6 9.6 14.608 10.344 15.008 11.392C14.696 11.264 14.36 11.2 14 11.2C12.888 11.2 11.92 11.856 11.472 12.8L12.864 13.6C13.032 13.136 13.48 12.8 14 12.8C14.3183 12.8 14.6235 12.9264 14.8485 13.1515C15.0736 13.3765 15.2 13.6817 15.2 14V15.2H16.8V14C16.8 13.6817 16.9264 13.3765 17.1515 13.1515C17.3765 12.9264 17.6817 12.8 18 12.8C18.528 12.8 18.968 13.136 19.136 13.6L20.528 12.8C20.08 11.856 19.12 11.2 18 11.2C17.64 11.2 17.304 11.264 16.992 11.392C17.392 10.344 18.4 9.6 19.6 9.6C20.3426 9.6 21.0548 9.895 21.5799 10.4201C22.105 10.9452 22.4 11.6574 22.4 12.4V12.8H24V12.4C24 11.233 23.5364 10.1139 22.7113 9.28873C21.8861 8.46357 20.767 8 19.6 8C18.112 8 16.8 8.744 16 9.872C15.2 8.744 13.888 8 12.4 8ZM11.2 16V17.6H12.336C12.736 18.52 13.48 19.256 14.4 19.656C14.4 20.304 14.4 20.952 14.4 21.6H8C8 21.6 8.656 22.584 9.128 23.288C9.424 23.736 9.92 24 10.456 24H21.544C22.08 24 22.576 23.736 22.872 23.288L24 21.6H17.6C17.6 20.952 17.6 20.304 17.6 19.656C18.52 19.256 19.264 18.52 19.664 17.6H20.8V16H11.2Z" fill="white"/>
</g>
<defs>
<clipPath id="clip0_201_3825">
<rect width="20" height="20" fill="white" transform="translate(6 6)"/>
</clipPath>
</defs>
</svg>
