<svg width="32" height="37" viewBox="0 0 32 37" fill="none" xmlns="http://www.w3.org/2000/svg">
<path d="M19.3898 31.909C19.6683 31.4907 20.0959 31.1978 20.5778 31.0554C27.1837 29.104 32 23.0379 32 15.857C32 7.09941 24.8366 0 16 0C7.16344 0 0 7.09941 0 15.857C0 23.0381 4.81667 29.1044 11.4228 31.0556C11.9048 31.1979 12.3325 31.4909 12.611 31.9093L15.5841 36.3749C15.782 36.6721 16.2186 36.6721 16.4165 36.3749L19.3898 31.909Z" fill="#59B36A"/>
<g clip-path="url(#clip0_201_3803)">
<path d="M13.1253 16C12.2336 15.4083 11.2503 14.9417 10.1836 14.6583C11.2503 14.9417 12.2336 15.4083 13.1253 16ZM21.8169 14.6583C20.7419 14.9417 19.7419 15.4167 18.8419 16.025C19.7419 15.4167 20.7419 14.9417 21.8169 14.6583Z" fill="#607D8B"/>
<path d="M18.9096 14.025C18.7596 11.7 17.818 9.43335 16.0513 7.66669C14.268 9.45002 13.2846 11.7167 13.093 14.025C14.1596 14.5917 15.143 15.325 16.0013 16.2167C16.8596 15.3334 17.843 14.6 18.9096 14.025ZM13.493 16.2334C13.3763 16.15 13.243 16.075 13.118 15.9917C13.243 16.0834 13.3763 16.15 13.493 16.2334ZM18.843 16.025C18.7346 16.1 18.618 16.1584 18.5096 16.2417C18.618 16.1584 18.7346 16.1 18.843 16.025ZM16.0013 18.875C14.2096 16.1417 11.1513 14.3334 7.66797 14.3334C7.66797 18.7667 10.468 22.5167 14.3596 23.9084C14.8846 24.1 15.4346 24.2417 16.0013 24.3334C16.568 24.2334 17.1096 24.0917 17.643 23.9084C21.5346 22.5167 24.3346 18.7667 24.3346 14.3334C20.8513 14.3334 17.793 16.1417 16.0013 18.875Z" fill="white"/>
</g>
<defs>
<clipPath id="clip0_201_3803">
<rect width="20" height="20" fill="white" transform="translate(6 6)"/>
</clipPath>
</defs>
</svg>
