<svg width="32" height="37" viewBox="0 0 32 37" fill="none" xmlns="http://www.w3.org/2000/svg">
<path d="M19.3898 31.909C19.6683 31.4907 20.0959 31.1978 20.5778 31.0554C27.1837 29.104 32 23.0379 32 15.857C32 7.09941 24.8366 0 16 0C7.16344 0 0 7.09941 0 15.857C0 23.0381 4.81667 29.1044 11.4228 31.0556C11.9048 31.1979 12.3325 31.4909 12.611 31.9093L15.5841 36.3749C15.782 36.6721 16.2186 36.6721 16.4165 36.3749L19.3898 31.909Z" fill="#F0AF18"/>
<circle cx="10.5174" cy="20.5439" r="2.5174" fill="white"/>
<circle cx="21.5955" cy="20.5439" r="2.5174" fill="white"/>
<path d="M14.0544 21.5H18.3047C18.0547 18.8333 19.8047 17.25 21.8254 17.25L19.3594 7.60449H12.9414V9.21487H17.7921L19.8047 16.5L17.5547 19.5H14.0544V21.5Z" fill="white"/>
</svg>
