<svg width="32" height="32" viewBox="0 0 32 32" fill="none" xmlns="http://www.w3.org/2000/svg">
<g clip-path="url(#clip0_201_4154)">
<path d="M15.9992 7.20001C11.1416 7.20001 7.19922 11.1424 7.19922 16C7.19922 20.8576 11.1416 24.8 15.9992 24.8C20.8568 24.8 24.7992 20.8576 24.7992 16C24.7992 11.1424 20.8568 7.20001 15.9992 7.20001ZM17 20.4H15V14.12H17V20.4ZM17 12.36H15V10.4998H17V12.36Z" fill="#262626"/>
<path fill-rule="evenodd" clip-rule="evenodd" d="M6.19922 16C6.19922 10.5901 10.5893 6.20001 15.9992 6.20001C21.4091 6.20001 25.7992 10.5901 25.7992 16C25.7992 21.4099 21.4091 25.8 15.9992 25.8C10.5893 25.8 6.19922 21.4099 6.19922 16ZM7.19922 16C7.19922 11.1424 11.1416 7.20001 15.9992 7.20001C20.8568 7.20001 24.7992 11.1424 24.7992 16C24.7992 20.8576 20.8568 24.8 15.9992 24.8C11.1416 24.8 7.19922 20.8576 7.19922 16ZM17 20.4V14.12H15V20.4H17ZM17 12.36V10.4998H15V12.36H17Z" fill="white"/>
</g>
<defs>
<clipPath id="clip0_201_4154">
<rect width="22" height="22" fill="white" transform="translate(5 5)"/>
</clipPath>
</defs>
</svg>
