<svg width="32" height="32" viewBox="0 0 32 32" fill="none" xmlns="http://www.w3.org/2000/svg">
<path fill-rule="evenodd" clip-rule="evenodd" d="M14.3339 19.7722C13.9167 19.9197 13.4677 20 13 20C10.7909 20 9 18.2091 9 16C9 13.7909 10.7909 12 13 12C13.4677 12 13.9167 12.0803 14.3339 12.2278C13.4997 13.2584 13 14.5708 13 16C13 17.4292 13.4997 18.7416 14.3339 19.7722ZM16 21.1973C15.1175 21.7078 14.0929 22 13 22C9.68629 22 7 19.3137 7 16C7 12.6863 9.68629 10 13 10C14.0929 10 15.1175 10.2922 16 10.8027C16.8825 10.2922 17.9071 10 19 10C22.3137 10 25 12.6863 25 16C25 19.3137 22.3137 22 19 22C17.9071 22 16.8825 21.7078 16 21.1973ZM17.6661 12.2278C18.0833 12.0803 18.5323 12 19 12C21.2091 12 23 13.7909 23 16C23 18.2091 21.2091 20 19 20C18.5323 20 18.0833 19.9197 17.6661 19.7722C18.5003 18.7416 19 17.4292 19 16C19 14.5708 18.5003 13.2584 17.6661 12.2278ZM16 13.3542C16.6224 14.0593 17 14.9856 17 16C17 17.0144 16.6224 17.9407 16 18.6458C15.3776 17.9407 15 17.0144 15 16C15 14.9856 15.3776 14.0593 16 13.3542Z" fill="#262626"/>
<path fill-rule="evenodd" clip-rule="evenodd" d="M14.3339 19.7722C14.115 19.5018 13.9192 19.2121 13.7494 18.9059C13.2719 18.045 13 17.0542 13 16C13 14.9458 13.2719 13.955 13.7494 13.0941C13.9192 12.7879 14.115 12.4982 14.3339 12.2278C13.9914 12.1067 13.6275 12.0309 13.2495 12.0077C13.167 12.0026 13.0838 12 13 12C10.7909 12 9 13.7909 9 16C9 18.2091 10.7909 20 13 20C13.0838 20 13.167 19.9974 13.2495 19.9923C13.6275 19.9691 13.9914 19.8933 14.3339 19.7722ZM12.6652 13.0185C11.1659 13.185 10 14.4563 10 16C10 17.5437 11.1659 18.815 12.6652 18.9815C12.2386 18.0767 12 17.0657 12 16C12 14.9343 12.2386 13.9233 12.6652 13.0185ZM16 22.3261C15.0899 22.7583 14.0721 23 13 23C9.13401 23 6 19.866 6 16C6 12.134 9.13401 9 13 9C14.0721 9 15.0899 9.24167 16 9.6739C16.9101 9.24167 17.9279 9 19 9C22.866 9 26 12.134 26 16C26 19.866 22.866 23 19 23C17.9279 23 16.9101 22.7583 16 22.3261ZM16 21.1973C15.1175 21.7078 14.0929 22 13 22C9.68629 22 7 19.3137 7 16C7 12.6863 9.68629 10 13 10C14.0929 10 15.1175 10.2922 16 10.8027C16.8825 10.2922 17.9071 10 19 10C22.3137 10 25 12.6863 25 16C25 19.3137 22.3137 22 19 22C17.9071 22 16.8825 21.7078 16 21.1973ZM17.6661 12.2278C17.885 12.4982 18.0808 12.7879 18.2506 13.0941C18.7281 13.955 19 14.9458 19 16C19 17.0542 18.7281 18.045 18.2506 18.9059C18.0808 19.2121 17.885 19.5018 17.6661 19.7722C18.0086 19.8933 18.3725 19.9691 18.7505 19.9923C18.833 19.9974 18.9162 20 19 20C21.2091 20 23 18.2091 23 16C23 13.7909 21.2091 12 19 12C18.9162 12 18.833 12.0026 18.7505 12.0077C18.3725 12.0309 18.0086 12.1067 17.6661 12.2278ZM19.3348 13.0185C19.7614 13.9233 20 14.9343 20 16C20 17.0657 19.7614 18.0767 19.3348 18.9815C20.8341 18.815 22 17.5437 22 16C22 14.4563 20.8341 13.185 19.3348 13.0185ZM16 13.3542C15.7696 13.6152 15.5728 13.9065 15.4162 14.2214C15.1498 14.7571 15 15.3611 15 16C15 16.6389 15.1498 17.2429 15.4162 17.7786C15.5728 18.0935 15.7696 18.3848 16 18.6458C16.2304 18.3848 16.4272 18.0935 16.5838 17.7786C16.8502 17.2429 17 16.6389 17 16C17 15.3611 16.8502 14.7571 16.5838 14.2214C16.4272 13.9065 16.2304 13.6152 16 13.3542Z" fill="white"/>
</svg>
