<svg width="32" height="32" viewBox="0 0 32 32" fill="none" xmlns="http://www.w3.org/2000/svg">
<g clip-path="url(#clip0_201_4108)">
<path d="M17.4444 9H12V23H15.1111V18.3333H17.4444C20.0189 18.3333 22.1111 16.2411 22.1111 13.6667C22.1111 11.0922 20.0189 9 17.4444 9ZM17.6 15.2222H15.1111V12.1111H17.6C18.4556 12.1111 19.1556 12.8111 19.1556 13.6667C19.1556 14.5222 18.4556 15.2222 17.6 15.2222Z" fill="#262626"/>
<path fill-rule="evenodd" clip-rule="evenodd" d="M11 8H17.4444C20.5712 8 23.1111 10.5399 23.1111 13.6667C23.1111 16.7934 20.5712 19.3333 17.4444 19.3333H16.1111V24H11V8ZM15.1111 23H12V9H17.4444C20.0189 9 22.1111 11.0922 22.1111 13.6667C22.1111 16.2411 20.0189 18.3333 17.4444 18.3333H15.1111V23ZM16.1111 14.2222H17.6C17.9033 14.2222 18.1556 13.9699 18.1556 13.6667C18.1556 13.3634 17.9033 13.1111 17.6 13.1111H16.1111V14.2222ZM17.6 15.2222C18.4556 15.2222 19.1556 14.5222 19.1556 13.6667C19.1556 12.8111 18.4556 12.1111 17.6 12.1111H15.1111V15.2222H17.6Z" fill="white"/>
</g>
<defs>
<clipPath id="clip0_201_4108">
<rect width="20" height="20" fill="white" transform="translate(6 6)"/>
</clipPath>
</defs>
</svg>
