<svg width="32" height="37" viewBox="0 0 32 37" fill="none" xmlns="http://www.w3.org/2000/svg">
<path d="M19.3898 31.909C19.6683 31.4907 20.0959 31.1978 20.5778 31.0554C27.1837 29.104 32 23.0379 32 15.857C32 7.09941 24.8366 0 16 0C7.16344 0 0 7.09941 0 15.857C0 23.0381 4.81667 29.1044 11.4228 31.0556C11.9048 31.1979 12.3325 31.4909 12.611 31.9093L15.5841 36.3749C15.782 36.6721 16.2186 36.6721 16.4165 36.3749L19.3898 31.909Z" fill="#336AF7"/>
<g clip-path="url(#clip0_201_15192)">
<path d="M10.4737 14.4286V19.4286H12.6842V14.4286H10.4737ZM14.8947 14.4286V19.4286H17.1053V14.4286H14.8947ZM9 23H23V20.8571H9V23ZM19.3158 14.4286V19.4286H21.5263V14.4286H19.3158ZM16 8L9 11.5714V13H23V11.5714L16 8Z" fill="white"/>
</g>
<defs>
<clipPath id="clip0_201_15192">
<rect width="20" height="20" fill="white" transform="translate(6 6)"/>
</clipPath>
</defs>
</svg>
