<svg width="32" height="37" viewBox="0 0 32 37" fill="none" xmlns="http://www.w3.org/2000/svg">
<path d="M19.3898 31.909C19.6683 31.4907 20.0959 31.1978 20.5778 31.0554C27.1837 29.104 32 23.0379 32 15.857C32 7.09941 24.8366 0 16 0C7.16344 0 0 7.09941 0 15.857C0 23.0381 4.81667 29.1044 11.4228 31.0556C11.9048 31.1979 12.3325 31.4909 12.611 31.9093L15.5841 36.3749C15.782 36.6721 16.2186 36.6721 16.4165 36.3749L19.3898 31.909Z" fill="#59B36A"/>
<g clip-path="url(#clip0_201_3762)">
<path d="M10.6818 23C10.0436 23 9.48727 22.6447 9.21727 22.1316L7.08182 14.6632L7 14.3158C7 14.1064 7.0862 13.9056 7.23964 13.7575C7.39308 13.6095 7.60119 13.5263 7.81818 13.5263H11.5655L15.3291 8.33947C15.4764 8.13421 15.7218 8 16 8C16.2782 8 16.5318 8.13421 16.6791 8.34737L20.4345 13.5263H24.1818C24.3988 13.5263 24.6069 13.6095 24.7604 13.7575C24.9138 13.9056 25 14.1064 25 14.3158L24.9673 14.5447L22.7827 22.1316C22.5127 22.6447 21.9564 23 21.3182 23H10.6818ZM16 10.1632L13.5455 13.5263H18.4545L16 10.1632ZM16 16.6842C15.566 16.6842 15.1498 16.8506 14.8429 17.1467C14.536 17.4428 14.3636 17.8444 14.3636 18.2632C14.3636 18.6819 14.536 19.0835 14.8429 19.3796C15.1498 19.6758 15.566 19.8421 16 19.8421C16.434 19.8421 16.8502 19.6758 17.1571 19.3796C17.464 19.0835 17.6364 18.6819 17.6364 18.2632C17.6364 17.8444 17.464 17.4428 17.1571 17.1467C16.8502 16.8506 16.434 16.6842 16 16.6842Z" fill="white"/>
</g>
<defs>
<clipPath id="clip0_201_3762">
<rect width="20" height="20" fill="white" transform="translate(6 6)"/>
</clipPath>
</defs>
</svg>
