<svg width="32" height="37" viewBox="0 0 32 37" fill="none" xmlns="http://www.w3.org/2000/svg">
<path d="M19.3898 31.909C19.6683 31.4907 20.0959 31.1978 20.5778 31.0554C27.1837 29.104 32 23.0379 32 15.857C32 7.09941 24.8366 0 16 0C7.16344 0 0 7.09941 0 15.857C0 23.0381 4.81667 29.1044 11.4228 31.0556C11.9048 31.1979 12.3325 31.4909 12.611 31.9093L15.5841 36.3749C15.782 36.6721 16.2186 36.6721 16.4165 36.3749L19.3898 31.909Z" fill="#59B36A"/>
<g clip-path="url(#clip0_201_3853)">
<path d="M8 17.1429H9.52381V18.6667H11.0476V17.1429H12.5714V18.6667H14.0952V17.1429H15.619V18.6667H17.1429V14.8571L19.4286 12.5714V8H20.9524L24 9.52381L20.9524 11.0476V12.5714L23.2381 14.8571V24H14.8571V21.7143C14.8571 21.3101 14.6966 20.9226 14.4108 20.6368C14.1251 20.351 13.7375 20.1905 13.3333 20.1905C12.9292 20.1905 12.5416 20.351 12.2558 20.6368C11.9701 20.9226 11.8095 21.3101 11.8095 21.7143V24H8V17.1429ZM20.1905 14.8571C19.7714 14.8571 19.4286 15.2686 19.4286 15.7714V17.1429H20.9524V15.7714C20.9524 15.2686 20.6095 14.8571 20.1905 14.8571Z" fill="white"/>
</g>
<defs>
<clipPath id="clip0_201_3853">
<rect width="20" height="20" fill="white" transform="translate(6 6)"/>
</clipPath>
</defs>
</svg>
