<svg width="32" height="32" viewBox="0 0 32 32" fill="none" xmlns="http://www.w3.org/2000/svg">
<g clip-path="url(#clip0_201_4706)">
<path fill-rule="evenodd" clip-rule="evenodd" d="M21 10.5C21 11.5 16 11.5 16 11.5C16 11.5 11 11.5 11 10.5C11 9.11929 14 8 16 8C18 8 21 9.11929 21 10.5ZM17 9.5C17 10.0523 16.5523 10.5 16 10.5C15.4477 10.5 15 10.0523 15 9.5C15 8.94772 15.4477 8.5 16 8.5C16.5523 8.5 17 8.94772 17 9.5ZM22.7242 22.1192C22.7242 20.6905 20.8752 19.5139 18.3539 19.0096L16.0007 22.9596L13.6476 19.0096C11.0422 19.4298 9.27734 20.6905 9.27734 22.1192V23.8H22.7242V22.1192ZM16 13C14 13 12.639 12.8745 12.639 12.8745V14.5554C12.639 16.4043 14.1518 17.9171 16.0007 17.9171C17.8497 17.9171 19.3624 16.4043 19.3624 14.5554V12.8745C19.3624 12.8745 18 13 16 13Z" fill="#262626"/>
<path fill-rule="evenodd" clip-rule="evenodd" d="M17.3784 18.6933C16.945 18.8384 16.4817 18.9171 16.0007 18.9171C15.5198 18.9171 15.0565 18.8384 14.6231 18.6933L16.0007 21.0057L17.3784 18.6933ZM16.0007 22.9596L13.6476 19.0096C11.0422 19.4298 9.27734 20.6905 9.27734 22.1192V23.8H22.7242V22.1192C22.7242 20.6905 20.8752 19.5139 18.3539 19.0096L16.0007 22.9596ZM16.0683 24.8H23.7242V22.1192C23.7242 20.9347 22.9582 20.0189 22.052 19.3943C21.1442 18.7687 19.9369 18.3134 18.6152 18.0422C19.6748 17.245 20.3624 15.9775 20.3624 14.5554V12.0768C20.4112 12.0637 20.4591 12.05 20.5061 12.036C20.7809 11.9535 21.094 11.8346 21.3586 11.6493C21.6162 11.469 22 11.0965 22 10.5C22 9.77444 21.6068 9.20197 21.1914 8.80446C20.7692 8.4003 20.2227 8.07473 19.6622 7.82114C18.5438 7.31517 17.1539 7 16 7C14.8461 7 13.4562 7.31517 12.3378 7.82114C11.7773 8.07473 11.2308 8.4003 10.8086 8.80446C10.3932 9.20197 10 9.77444 10 10.5C10 11.0965 10.3838 11.469 10.6414 11.6493C10.906 11.8346 11.2191 11.9535 11.4939 12.036C11.5413 12.0502 11.5898 12.0639 11.639 12.0772V14.5554C11.639 15.9761 12.3253 17.2425 13.3831 18.0398C12.0156 18.2731 10.806 18.7301 9.90527 19.3717C8.99217 20.0222 8.27734 20.9603 8.27734 22.1192V24.8H15.9332L16.0007 24.9135L16.0683 24.8ZM12.639 14.5554C12.639 16.4043 14.1518 17.9171 16.0007 17.9171C17.8497 17.9171 19.3624 16.4043 19.3624 14.5554V12.8745C19.3624 12.8745 18.9953 12.9083 18.3624 12.9408C17.7762 12.971 16.9618 13 16 13C15.0386 13 14.2249 12.971 13.639 12.9409C13.0061 12.9084 12.639 12.8745 12.639 12.8745V14.5554ZM16 11.5C16.0017 11.5 16.0034 11.5 16.005 11.5C16.1829 11.4997 21 11.4815 21 10.5C21 9.43715 19.2223 8.52921 17.4915 8.1675C16.9739 8.05932 16.4604 8 16 8C15.5396 8 15.0261 8.05932 14.5085 8.1675C12.7777 8.52921 11 9.43715 11 10.5C11 11.4815 15.8171 11.4997 15.995 11.5C15.9966 11.5 15.9983 11.5 16 11.5ZM15.9962 10.5C15.4457 10.498 15 10.051 15 9.5C15 9.34868 15.0336 9.2052 15.0938 9.07664C15.2532 8.73598 15.599 8.5 16 8.5C16.401 8.5 16.7468 8.73598 16.9062 9.07664C16.9664 9.2052 17 9.34868 17 9.5C17 10.0506 16.555 10.4972 16.0051 10.5C16.0034 10.5 16.0017 10.5 16 10.5C16 10.5 16 10.5 16 10.5C15.9988 10.5 15.9974 10.5 15.9962 10.5Z" fill="white"/>
</g>
<defs>
<clipPath id="clip0_201_4706">
<rect width="20" height="20" fill="white" transform="translate(6 6)"/>
</clipPath>
</defs>
</svg>
