<svg width="32" height="37" viewBox="0 0 32 37" fill="none" xmlns="http://www.w3.org/2000/svg">
<path d="M19.3898 31.909C19.6683 31.4907 20.0959 31.1978 20.5778 31.0554C27.1837 29.104 32 23.0379 32 15.857C32 7.09941 24.8366 0 16 0C7.16344 0 0 7.09941 0 15.857C0 23.0381 4.81667 29.1044 11.4228 31.0556C11.9048 31.1979 12.3325 31.4909 12.611 31.9093L15.5841 36.3749C15.782 36.6721 16.2186 36.6721 16.4165 36.3749L19.3898 31.909Z" fill="#59B36A"/>
<g clip-path="url(#clip0_201_3812)">
<path d="M20.5 18.1714C19.285 18.1714 18.52 18.6514 17.845 19.0857C17.26 19.4629 16.783 19.7714 16 19.7714C15.19 19.7714 14.74 19.4857 14.155 19.0857C13.48 18.6514 12.742 18.1714 11.5 18.1714C10.258 18.1714 9.52 18.6514 8.845 19.0857C8.26 19.4629 7.792 19.7714 7 19.7714V22C8.215 22 8.98 21.52 9.655 21.0857C10.24 20.7086 10.708 20.4 11.5 20.4C12.292 20.4 12.76 20.6857 13.345 21.0857C14.02 21.52 14.758 22 16 22C17.242 22 17.98 21.52 18.655 21.0857C19.24 20.7086 19.717 20.4 20.5 20.4C21.31 20.4 21.76 20.6857 22.345 21.0857C23.02 21.52 23.767 22 25 22V19.7714C24.19 19.7714 23.74 19.4857 23.155 19.0857C22.48 18.6514 21.715 18.1714 20.5 18.1714ZM20.5 14.0857C19.285 14.0857 18.52 14.5771 17.845 15C17.26 15.3657 16.783 15.6857 16 15.6857C15.19 15.6857 14.74 15.4 14.155 15C13.48 14.5657 12.742 14.0857 11.5 14.0857C10.258 14.0857 9.52 14.5771 8.845 15C8.26 15.3657 7.792 15.6857 7 15.6857V17.9143C8.215 17.9143 8.98 17.4229 9.655 17C10.24 16.6 10.69 16.3143 11.5 16.3143C12.31 16.3143 12.76 16.6 13.345 17C14.02 17.4343 14.758 17.9143 16 17.9143C17.242 17.9143 17.98 17.4229 18.655 17C19.24 16.6 19.69 16.3143 20.5 16.3143C21.31 16.3143 21.76 16.6 22.345 17C23.02 17.4343 23.767 17.9143 25 17.9143V15.6857C24.19 15.6857 23.74 15.4 23.155 15C22.48 14.5657 21.715 14.0857 20.5 14.0857ZM20.5 10C19.285 10 18.52 10.4914 17.845 10.9143C17.26 11.3143 16.81 11.6 16 11.6C15.19 11.6 14.74 11.3143 14.155 10.9143C13.48 10.48 12.742 10 11.5 10C10.258 10 9.52 10.4914 8.845 10.9143C8.26 11.3143 7.81 11.6 7 11.6V13.8286C8.215 13.8286 8.98 13.3371 9.655 12.9143C10.24 12.5486 10.717 12.2286 11.5 12.2286C12.283 12.2286 12.76 12.5143 13.345 12.9143C14.02 13.3486 14.758 13.8286 16 13.8286C17.242 13.8286 17.98 13.3371 18.655 12.9143C19.24 12.5486 19.717 12.2286 20.5 12.2286C21.31 12.2286 21.76 12.5143 22.345 12.9143C23.02 13.3486 23.767 13.8286 25 13.8286V11.6C24.19 11.6 23.74 11.3143 23.155 10.9143C22.48 10.48 21.715 10 20.5 10Z" fill="white"/>
</g>
<defs>
<clipPath id="clip0_201_3812">
<rect width="20" height="20" fill="white" transform="translate(6 6)"/>
</clipPath>
</defs>
</svg>
