<svg width="33" height="37" viewBox="0 0 33 37" fill="none" xmlns="http://www.w3.org/2000/svg">
<path d="M19.3898 31.909C19.6683 31.4907 20.0959 31.1978 20.5778 31.0554C27.1837 29.104 32 23.0379 32 15.857C32 7.09941 24.8366 0 16 0C7.16344 0 0 7.09941 0 15.857C0 23.0381 4.81667 29.1044 11.4229 31.0556C11.9048 31.1979 12.3325 31.4909 12.611 31.9092L15.5841 36.3749C15.782 36.6721 16.2186 36.6721 16.4165 36.3749L19.3898 31.909Z" fill="#E8773F"/>
<g clip-path="url(#clip0_201_4066)">
<path d="M15.2222 13.6H13.6667V8H12.1111V13.6H10.5556V8H9V13.6C9 15.296 10.2911 16.672 11.9167 16.776V24H13.8611V16.776C15.4867 16.672 16.7778 15.296 16.7778 13.6V8H15.2222V13.6ZM19.1111 11.2V17.6H21.0556V24H23V8C20.8533 8 19.1111 9.792 19.1111 11.2Z" fill="white"/>
</g>
<defs>
<clipPath id="clip0_201_4066">
<rect width="20" height="20" fill="white" transform="translate(6 6)"/>
</clipPath>
</defs>
</svg>
