<svg width="32" height="37" viewBox="0 0 32 37" fill="none" xmlns="http://www.w3.org/2000/svg">
<path d="M19.3898 31.909C19.6683 31.4907 20.0959 31.1978 20.5778 31.0554C27.1837 29.104 32 23.0379 32 15.857C32 7.09941 24.8366 0 16 0C7.16344 0 0 7.09941 0 15.857C0 23.0381 4.81667 29.1044 11.4228 31.0556C11.9048 31.1979 12.3325 31.4909 12.611 31.9093L15.5841 36.3749C15.782 36.6721 16.2186 36.6721 16.4165 36.3749L19.3898 31.909Z" fill="#F0AF18"/>
<g clip-path="url(#clip0_201_3964)">
<path d="M15.9973 17.9091C16.4328 17.9091 16.8397 17.8146 17.211 17.6328L20.4508 24.5001H22L18.3461 16.6509C18.6674 16.1782 18.853 15.6109 18.853 15C18.853 14.2285 18.5521 13.4886 18.0166 12.943C17.481 12.3974 16.7547 12.0909 15.9973 12.0909C15.2399 12.0909 14.5136 12.3974 13.978 12.943C13.4425 13.4886 13.1416 14.2285 13.1416 15C13.1416 15.6109 13.3272 16.1782 13.6485 16.6509L10 24.5001H11.5492L14.7836 17.6328C15.1549 17.8146 15.5618 17.9091 15.9973 17.9091Z" fill="white"/>
<rect x="14.5" y="6.5" width="3" height="3" fill="#FFFEFE"/>
<rect x="8" y="10" width="3" height="3" fill="#FFFEFE"/>
<rect x="21" y="10" width="3" height="3" fill="#FFFEFE"/>
<rect x="8" y="17" width="3" height="3" fill="#FFFEFE"/>
<rect x="21" y="17" width="3" height="3" fill="#FFFEFE"/>
<rect x="14.5" y="20.5" width="3" height="3" fill="#FFFEFE"/>
<path fill-rule="evenodd" clip-rule="evenodd" d="M16 8.5C12.4101 8.5 9.5 11.4101 9.5 15C9.5 18.5899 12.4101 21.5 16 21.5C19.5899 21.5 22.5 18.5899 22.5 15C22.5 11.4101 19.5899 8.5 16 8.5ZM8.5 15C8.5 10.8579 11.8579 7.5 16 7.5C20.1421 7.5 23.5 10.8579 23.5 15C23.5 19.1421 20.1421 22.5 16 22.5C11.8579 22.5 8.5 19.1421 8.5 15Z" fill="white"/>
</g>
<defs>
<clipPath id="clip0_201_3964">
<rect width="20" height="20" fill="white" transform="translate(6 5)"/>
</clipPath>
</defs>
</svg>
