<svg width="32" height="37" viewBox="0 0 32 37" fill="none" xmlns="http://www.w3.org/2000/svg">
<path d="M19.3898 31.909C19.6683 31.4907 20.0959 31.1978 20.5778 31.0554C27.1837 29.104 32 23.0379 32 15.857C32 7.09941 24.8366 0 16 0C7.16344 0 0 7.09941 0 15.857C0 23.0381 4.81667 29.1044 11.4228 31.0556C11.9048 31.1979 12.3325 31.4909 12.611 31.9093L15.5841 36.3749C15.782 36.6721 16.2186 36.6721 16.4165 36.3749L19.3898 31.909Z" fill="#7849DC"/>
<g clip-path="url(#clip0_201_3746)">
<path d="M24.2421 19.25C23.6189 18.975 22.8947 19.25 22.6337 19.8833C22.5242 20.15 22.3052 20.3917 22.0526 20.5H9V23H21.6063C23.0463 23 24.3431 22.1667 24.8989 20.8417C25.1684 20.225 24.8821 19.5083 24.2421 19.25ZM22.4737 18C22.4737 18 22.4737 18.8333 20.7895 18.8333C19.1052 18.8333 9.8421 18.8333 9.8421 18.8333V8H15.7368L15.9137 9.25H14.2547V10.5H16.0989L16.2758 11.75H14.2547V13H16.461L16.5789 13.8333H18.2631C18.2631 13.8333 22.4737 13.8333 22.4737 18Z" fill="white"/>
</g>
<defs>
<clipPath id="clip0_201_3746">
<rect width="20" height="20" fill="white" transform="translate(6 6)"/>
</clipPath>
</defs>
</svg>
