<svg width="32" height="37" viewBox="0 0 32 37" fill="none" xmlns="http://www.w3.org/2000/svg">
<path d="M19.3898 31.909C19.6683 31.4907 20.0959 31.1978 20.5778 31.0554C27.1837 29.104 32 23.0379 32 15.857C32 7.09941 24.8366 0 16 0C7.16344 0 0 7.09941 0 15.857C0 23.0381 4.81667 29.1044 11.4228 31.0556C11.9048 31.1979 12.3325 31.4909 12.611 31.9093L15.5841 36.3749C15.782 36.6721 16.2186 36.6721 16.4165 36.3749L19.3898 31.909Z" fill="#60AFA9"/>
<path d="M16 16.7143C14.9686 16.7143 13.9794 16.2878 13.2501 15.5288C12.5208 14.7697 12.1111 13.7402 12.1111 12.6667H13.6667C13.6667 13.3108 13.9125 13.9285 14.3501 14.3839C14.7877 14.8394 15.3812 15.0952 16 15.0952C16.6188 15.0952 17.2123 14.8394 17.6499 14.3839C18.0875 13.9285 18.3333 13.3108 18.3333 12.6667H19.8889C19.8889 13.7402 19.4792 14.7697 18.7499 15.5288C18.0206 16.2878 17.0314 16.7143 16 16.7143ZM16 8.61905C16.6188 8.61905 17.2123 8.87491 17.6499 9.33036C18.0875 9.78581 18.3333 10.4035 18.3333 11.0476H13.6667C13.6667 10.4035 13.9125 9.78581 14.3501 9.33036C14.7877 8.87491 15.3812 8.61905 16 8.61905ZM21.4444 11.0476H19.8889C19.8889 10.5161 19.7883 9.98974 19.5929 9.49866C19.3974 9.00758 19.111 8.56138 18.7499 8.18552C18.3887 7.80966 17.96 7.51152 17.4882 7.30811C17.0164 7.10469 16.5107 7 16 7C14.9686 7 13.9794 7.42644 13.2501 8.18552C12.5208 8.9446 12.1111 9.97412 12.1111 11.0476H10.5556C9.69222 11.0476 9 11.7681 9 12.6667V22.381C9 22.8104 9.16389 23.2222 9.45561 23.5258C9.74733 23.8294 10.143 24 10.5556 24H21.4444C21.857 24 22.2527 23.8294 22.5444 23.5258C22.8361 23.2222 23 22.8104 23 22.381V12.6667C23 11.7681 22.3 11.0476 21.4444 11.0476Z" fill="white"/>
</svg>
