<svg width="32" height="37" viewBox="0 0 32 37" fill="none" xmlns="http://www.w3.org/2000/svg">
<path d="M19.3898 31.909C19.6683 31.4907 20.0959 31.1978 20.5778 31.0554C27.1837 29.104 32 23.0379 32 15.857C32 7.09941 24.8366 0 16 0C7.16344 0 0 7.09941 0 15.857C0 23.0381 4.81667 29.1044 11.4228 31.0556C11.9048 31.1979 12.3325 31.4909 12.611 31.9093L15.5841 36.3749C15.782 36.6721 16.2186 36.6721 16.4165 36.3749L19.3898 31.909Z" fill="#60AFA9"/>
<g clip-path="url(#clip0_201_4180)">
<path d="M17.5401 12.046C17.5401 11.091 16.8495 10.314 16.0005 10.314C15.1516 10.314 14.4609 11.091 14.4609 12.046C14.4609 13.0011 15.1516 13.7781 16.0005 13.7781C16.8495 13.7781 17.5401 13.0011 17.5401 12.046Z" fill="white"/>
<path d="M10.6211 15.4727C10.6211 15.4727 12.5024 16.97 16.0012 16.97C19.5 16.97 21.3813 15.4727 21.3813 15.4727C21.14 14.9821 20.8419 14.5177 20.4866 14.092V12.0461C20.4866 9.26368 18.4745 7 16.0012 7C13.5279 7 11.5158 9.26368 11.5158 12.0461V14.092C11.1605 14.5177 10.8624 14.9821 10.6211 15.4727Z" fill="white"/>
<path d="M10.2019 16.8C9.44477 19.2317 9.92864 21.7752 11.6536 23.7157C12.244 24.3796 12.6579 24.8455 12.6579 24.8455C12.7458 24.9445 12.865 25.0001 12.9894 25.0001H19.0144C19.1388 25.0001 19.258 24.9444 19.346 24.8455C19.346 24.8455 19.7599 24.3796 20.3502 23.7157C22.0752 21.7752 22.5591 19.2317 21.8019 16.8C21.8019 16.8 19.5 18.3 16.0019 18.3C12.5038 18.3 10.2019 16.8 10.2019 16.8Z" fill="white"/>
</g>
<defs>
<clipPath id="clip0_201_4180">
<rect width="16" height="18" fill="white" transform="translate(8 7)"/>
</clipPath>
</defs>
</svg>
