<svg width="32" height="37" viewBox="0 0 32 37" fill="none" xmlns="http://www.w3.org/2000/svg">
<path d="M19.3898 31.909C19.6683 31.4907 20.0959 31.1978 20.5778 31.0554C27.1837 29.104 32 23.0379 32 15.857C32 7.09941 24.8366 0 16 0C7.16344 0 0 7.09941 0 15.857C0 23.0381 4.81667 29.1044 11.4228 31.0556C11.9048 31.1979 12.3325 31.4909 12.611 31.9093L15.5841 36.3749C15.782 36.6721 16.2186 36.6721 16.4165 36.3749L19.3898 31.909Z" fill="#7849DC"/>
<g clip-path="url(#clip0_201_3733)">
<path d="M22.7822 17.528L24.0984 16.2117L22.7822 14.8955L19.4962 18.1815L13.817 12.5023L17.103 9.21627L15.7867 7.90002L14.4705 9.21627L13.1542 7.90002L11.1845 9.8698L9.86821 8.55355L8.55196 9.8698L9.86821 11.186L7.89844 13.1558L9.21469 14.4721L7.89844 15.7883L9.21469 17.1046L12.5007 13.8185L18.1799 19.4978L14.8939 22.7838L16.2101 24.1L17.5264 22.7838L18.8426 24.1L20.8124 22.1303L22.1287 23.4465L23.4449 22.1303L22.1287 20.814L24.0984 18.8442L22.7822 17.528Z" fill="white"/>
</g>
<defs>
<clipPath id="clip0_201_3733">
<rect width="18" height="18" fill="white" transform="translate(7 7)"/>
</clipPath>
</defs>
</svg>
