<svg width="32" height="37" viewBox="0 0 32 37" fill="none" xmlns="http://www.w3.org/2000/svg">
<path d="M19.3898 31.909C19.6683 31.4907 20.0959 31.1978 20.5778 31.0554C27.1837 29.104 32 23.0379 32 15.857C32 7.09941 24.8366 0 16 0C7.16344 0 0 7.09941 0 15.857C0 23.0381 4.81667 29.1044 11.4228 31.0556C11.9048 31.1979 12.3325 31.4909 12.611 31.9093L15.5841 36.3749C15.782 36.6721 16.2186 36.6721 16.4165 36.3749L19.3898 31.909Z" fill="#59B36A"/>
<g clip-path="url(#clip0_201_3844)">
<path d="M23.4208 11.7302L23.0082 11.4127C22.5956 11.0952 22.018 10.9365 21.4404 10.9365H21.1929L20.8628 8C20.8628 8 18.7174 10.5397 18.7174 13.1587C18.7174 13.2381 18.7174 13.3968 18.7174 13.4762C18.7174 14.4286 17.6446 13.9524 16.1593 13.873C15.6642 11.7302 14.179 9.8254 11.4559 9.8254C11.0433 9.8254 7 10.3016 7 13.7143C7 16.7302 10.0531 16.6508 10.7958 16.1746C10.1356 17.3651 8.15523 22.2063 12.4461 22.2063H12.5286C12.5286 22.4444 12.6111 22.6032 12.7762 22.7619C12.8587 22.9206 13.1062 23 13.2713 23H20.2852V21.4921H17.5621C18.6348 21.4921 19.5425 20.619 19.5425 19.5873C19.5425 18.5556 18.6348 17.6825 17.5621 17.6825C17.2321 17.6825 16.902 17.7619 16.6545 17.9206C16.9845 17.3651 17.6446 16.9683 18.3873 16.9683C19.46 16.9683 20.3677 17.8413 20.3677 19.1905L21.2754 20.7778H23.0908L21.688 18.3968C22.3481 17.8413 22.6782 17.0476 22.6782 16.1746V16.0952H23.0908C24.1635 16.0952 24.9886 15.3016 24.9886 14.2698C24.9886 14.3492 25.2362 13.3175 23.4208 11.7302ZM22.6782 13.9524C22.2656 13.9524 21.853 13.6349 21.853 13.1587C21.853 12.7619 22.1831 12.4444 22.6782 12.4444C23.0908 12.4444 23.4208 12.7619 23.4208 13.1587C23.4208 13.6349 23.0908 13.9524 22.6782 13.9524Z" fill="white"/>
</g>
<defs>
<clipPath id="clip0_201_3844">
<rect width="20" height="20" fill="white" transform="translate(6 6)"/>
</clipPath>
</defs>
</svg>
