<svg width="32" height="37" viewBox="0 0 32 37" fill="none" xmlns="http://www.w3.org/2000/svg">
<path d="M19.3898 31.909C19.6683 31.4907 20.0959 31.1978 20.5778 31.0554C27.1837 29.104 32 23.0379 32 15.857C32 7.09941 24.8366 0 16 0C7.16344 0 0 7.09941 0 15.857C0 23.0381 4.81667 29.1044 11.4228 31.0556C11.9048 31.1979 12.3325 31.4909 12.611 31.9093L15.5841 36.3749C15.782 36.6721 16.2186 36.6721 16.4165 36.3749L19.3898 31.909Z" fill="#7849DC"/>
<path fill-rule="evenodd" clip-rule="evenodd" d="M7 20.4997L7 23.1997L15.1 23.1997L15.1 18.8626C13.8829 18.4803 13 17.3432 13 15.9999C13 14.6566 13.8829 13.5195 15.1 13.1372L15.1 8.79971L7 8.79971L7 11.4997L10.6 11.4997L10.6 12.3997L10.6 13.2997L10.6 18.6997L10.6 19.5997L10.6 20.4997L7 20.4997ZM16.9 13.1372C18.1171 13.5195 19 14.6566 19 15.9999C19 17.3432 18.1171 18.4803 16.9 18.8626L16.9 23.1997L25 23.1997L25 8.79971L16.9 8.79971L16.9 13.1372ZM7 18.6997L8.8 18.6997L8.8 13.2997L7 13.2997L7 18.6997ZM21.4 19.5997L21.4 20.4997L25 20.4997L25 18.6997L23.2 18.6997L23.2 13.2997L25 13.2997L25 11.4997L21.4 11.4997L21.4 12.3997L21.4 13.2997L21.4 18.6997L21.4 19.5997ZM15 15.9999C15 15.4476 15.4477 14.9999 16 14.9999C16.5523 14.9999 17 15.4476 17 15.9999C17 16.5522 16.5523 16.9999 16 16.9999C15.4477 16.9999 15 16.5522 15 15.9999Z" fill="white"/>
</svg>
