<svg width="32" height="32" viewBox="0 0 32 32" fill="none" xmlns="http://www.w3.org/2000/svg">
<path d="M10.0461 15.9218C8.71517 15.9218 7.38421 15.9218 6 15.9218C6 14.6619 6 13.3664 6 12.0177C7.31322 12.0177 8.59095 12.0177 10.0461 12.0177C10.0461 13.3131 10.0461 14.6264 10.0461 15.9218Z" fill="#262626"/>
<path d="M14.0214 15.9752C14.0214 17.2884 14.0214 18.6194 14.0214 19.9858C12.6904 19.9858 11.3772 19.9858 10.064 19.9858C10.064 18.6371 10.064 17.2884 10.064 15.9397C11.3772 15.9574 12.7081 15.9752 14.0214 15.9752Z" fill="#262626"/>
<path d="M18.1371 15.9396C16.7529 15.9573 15.3865 15.9573 14.0023 15.9751L14.02 15.9928C14.02 14.6796 14.02 13.3664 14.02 12.0177C15.3687 12.0177 16.6465 12.0177 18.0307 12.0177C18.0307 13.0292 18.0307 14.023 18.0307 14.999C18.0484 15.3185 18.1016 15.6379 18.1371 15.9396Z" fill="#262626"/>
<path d="M21.9355 15.9574C21.971 15.1766 22.0065 14.4135 22.0242 13.6327C22.042 13.1003 22.0242 12.5679 22.0242 12C23.3907 12 24.6684 12 25.9994 12C25.9994 13.331 25.9994 14.6264 25.9994 15.9397C24.6329 15.9397 23.2842 15.9397 21.9355 15.9574Z" fill="#262626"/>
<path d="M18.1397 15.9397C19.4174 15.9397 20.6774 15.9397 21.9551 15.9574L21.9374 15.9397C21.9729 16.5608 22.0261 17.1819 22.0439 17.8031C22.0616 18.5129 22.0439 19.2405 22.0439 19.9858C20.7129 19.9858 19.4174 19.9858 18.1397 19.9858C18.1397 18.6371 18.1397 17.2884 18.1397 15.9397Z" fill="#262626"/>
</svg>
