<svg width="32" height="37" viewBox="0 0 32 37" fill="none" xmlns="http://www.w3.org/2000/svg">
<path d="M19.3898 31.909C19.6683 31.4907 20.0959 31.1978 20.5778 31.0554C27.1837 29.104 32 23.0379 32 15.857C32 7.09941 24.8366 0 16 0C7.16344 0 0 7.09941 0 15.857C0 23.0381 4.81667 29.1044 11.4229 31.0556C11.9048 31.1979 12.3325 31.4909 12.611 31.9092L15.5841 36.3749C15.782 36.6721 16.2186 36.6721 16.4165 36.3749L19.3898 31.909Z" fill="#336AF7"/>
<g clip-path="url(#clip0_201_4040)">
<path d="M14.2143 8H17.7857V12.8H22.5V16.2H17.7857V25H14.2143V16.2H9.5V12.8H14.2143V8Z" fill="white"/>
</g>
<defs>
<clipPath id="clip0_201_4040">
<rect width="20" height="20" fill="white" transform="translate(6 6)"/>
</clipPath>
</defs>
</svg>
