<svg width="32" height="37" viewBox="0 0 32 37" fill="none" xmlns="http://www.w3.org/2000/svg">
<path d="M19.3898 31.909C19.6683 31.4907 20.0959 31.1978 20.5778 31.0554C27.1837 29.104 32 23.0379 32 15.857C32 7.09941 24.8366 0 16 0C7.16344 0 0 7.09941 0 15.857C0 23.0381 4.81667 29.1044 11.4228 31.0556C11.9048 31.1979 12.3325 31.4909 12.611 31.9093L15.5841 36.3749C15.782 36.6721 16.2186 36.6721 16.4165 36.3749L19.3898 31.909Z" fill="#F0AF18"/>
<g clip-path="url(#clip0_201_3908)">
<path d="M12.4972 22.7414C10.5441 22.0175 8.99601 20.3256 8.53699 18.1269L7.04292 11.0604C6.82691 10.0832 7.44794 9.12414 8.41998 8.91604L17.2134 7.0431L17.2404 7.03406C18.2035 6.84405 19.1485 7.46836 19.3465 8.42745L19.6615 9.93846L23.5767 10.7799H23.6037C24.5488 10.9971 25.1608 11.9562 24.9628 12.9153L23.4687 19.9908C22.7487 23.4019 19.4005 25.5915 15.9983 24.8586C14.5763 24.56 13.3702 23.7909 12.4972 22.7414ZM23.1987 12.5443L14.4053 10.6623L12.9112 17.7378V17.765C12.3982 20.1898 13.9552 22.5785 16.3764 23.0942C18.7975 23.61 21.1916 22.0537 21.7046 19.6198L23.1987 12.5443ZM19.5985 20.0722C19.0315 21.0404 17.8974 21.5742 16.7454 21.3299C15.6023 21.0856 14.7833 20.1356 14.6483 19.0226L19.5985 20.0722ZM18.7255 16.2087C19.0135 15.7292 19.6255 15.4758 20.2466 15.6116C20.8676 15.7382 21.3176 16.2178 21.3986 16.7787C21.1016 17.2492 20.4986 17.5026 19.8685 17.3578C19.2475 17.2402 18.7975 16.7606 18.7255 16.2087ZM14.3333 15.2677C14.6213 14.7882 15.2243 14.5348 15.8453 14.6706C16.4484 14.7972 16.9254 15.2858 16.9974 15.8378C16.7004 16.3083 16.0974 16.5706 15.4763 16.453C14.8553 16.2992 14.4053 15.8197 14.3333 15.2677Z" fill="white"/>
</g>
<defs>
<clipPath id="clip0_201_3908">
<rect width="20" height="20" fill="white" transform="translate(6 6)"/>
</clipPath>
</defs>
</svg>
