<svg width="32" height="32" viewBox="0 0 32 32" fill="none" xmlns="http://www.w3.org/2000/svg">
<g clip-path="url(#clip0_201_4126)">
<path d="M16.8 13.375H15.2V11.875H16.8V13.375ZM16.8 16.75H15.2V15.25H16.8V16.75ZM16.8 20.125H15.2V18.625H16.8V20.125ZM24 14.5V11.5C24 10.6675 23.28 10 22.4 10H9.6C9.17565 10 8.76869 10.158 8.46863 10.4393C8.16857 10.7206 8 11.1022 8 11.5V14.5C8.888 14.5 9.6 15.175 9.6 16C9.6 16.3978 9.43143 16.7794 9.13137 17.0607C8.83131 17.342 8.42435 17.5 8 17.5V20.5C8 20.8978 8.16857 21.2794 8.46863 21.5607C8.76869 21.842 9.17565 22 9.6 22H22.4C22.8243 22 23.2313 21.842 23.5314 21.5607C23.8314 21.2794 24 20.8978 24 20.5V17.5C23.5757 17.5 23.1687 17.342 22.8686 17.0607C22.5686 16.7794 22.4 16.3978 22.4 16C22.4 15.6022 22.5686 15.2206 22.8686 14.9393C23.1687 14.658 23.5757 14.5 24 14.5Z" fill="#262626"/>
<path fill-rule="evenodd" clip-rule="evenodd" d="M24 11.5C24 10.6675 23.28 10 22.4 10H9.6C9.17565 10 8.76869 10.158 8.46863 10.4393C8.16857 10.7206 8 11.1022 8 11.5V14.5C8.888 14.5 9.6 15.175 9.6 16C9.6 16.3978 9.43143 16.7794 9.13137 17.0607C8.83131 17.342 8.42435 17.5 8 17.5V20.5C8 20.8978 8.16857 21.2794 8.46863 21.5607C8.76869 21.842 9.17565 22 9.6 22H22.4C22.8243 22 23.2313 21.842 23.5314 21.5607C23.8314 21.2794 24 20.8978 24 20.5V17.5C23.5757 17.5 23.1687 17.342 22.8686 17.0607C22.5686 16.7794 22.4 16.3978 22.4 16C22.4 15.6022 22.5686 15.2206 22.8686 14.9393C23.1687 14.658 23.5757 14.5 24 14.5V11.5ZM25 15.5H24C23.8208 15.5 23.6609 15.5673 23.5526 15.6689C23.4464 15.7684 23.4 15.889 23.4 16C23.4 16.111 23.4464 16.2316 23.5526 16.3311C23.6609 16.4327 23.8208 16.5 24 16.5H25V20.5C25 21.1846 24.7093 21.8271 24.2153 22.2902C23.7235 22.7513 23.0695 23 22.4 23H9.6C8.93051 23 8.2765 22.7513 7.78469 22.2902C7.29069 21.8271 7 21.1846 7 20.5V16.5H8C8.17921 16.5 8.33912 16.4327 8.44743 16.3311C8.55355 16.2316 8.6 16.111 8.6 16C8.6 15.784 8.39414 15.5 8 15.5H7V11.5C7 10.8154 7.29069 10.1729 7.78469 9.7098C8.2765 9.24873 8.93052 9 9.6 9H22.4C23.7672 9 25 10.0523 25 11.5V15.5ZM16.8 13.375V11.875H15.2V13.375H16.8ZM16.8 16.75V15.25H15.2V16.75H16.8ZM16.8 20.125V18.625H15.2V20.125H16.8Z" fill="white"/>
</g>
<defs>
<clipPath id="clip0_201_4126">
<rect width="20" height="20" fill="white" transform="translate(6 6)"/>
</clipPath>
</defs>
</svg>
