<svg width="32" height="37" viewBox="0 0 32 37" fill="none" xmlns="http://www.w3.org/2000/svg">
<path d="M19.3898 31.909C19.6683 31.4907 20.0959 31.1978 20.5778 31.0554C27.1837 29.104 32 23.0379 32 15.857C32 7.09941 24.8366 0 16 0C7.16344 0 0 7.09941 0 15.857C0 23.0381 4.81667 29.1044 11.4228 31.0556C11.9048 31.1979 12.3325 31.4909 12.611 31.9093L15.5841 36.3749C15.782 36.6721 16.2186 36.6721 16.4165 36.3749L19.3898 31.909Z" fill="#262626"/>
<rect width="20" height="20" transform="translate(6 6)" fill="#262626"/>
<path d="M16.5902 9.82251H14.9453V12.2194H16.5432C17.2952 12.2194 17.7652 11.7494 17.7652 11.0444C17.7182 10.3395 17.2952 9.82251 16.5902 9.82251Z" fill="white"/>
<path d="M7 7.98949V16.966H18.9843V13.9582H21.9922V14.9451H20.0183V16.919V18.8929L17.0104 20.8668V21.8537H15.9765V19.8799L18.9843 17.9059H10.9948V24.9085H18.9843L21.9922 20.9138V16.919H25V7.9425H7V7.98949ZM7.98695 15.979V14.0052L9.96084 15.979H7.98695ZM7.98695 10.9503V8.97642H9.96084L7.98695 10.9503ZM16.4465 13.0652H14.8956V13.7232H17.0104C17.0104 13.7232 17.0574 13.7232 17.0574 13.7702V14.5221C17.0574 14.5691 17.0574 14.5691 17.0104 14.5691H14.8956V15.979C14.8956 16.026 14.8956 16.026 14.8486 16.026H14.0496C14.0496 16.026 14.0026 16.026 14.0026 15.979V14.5691H12.8277C12.7807 14.5691 12.7807 14.5691 12.7807 14.5221V13.7702C12.7807 13.7232 12.7807 13.7232 12.8277 13.7232H14.0026V13.0652H12.8277C12.7807 13.0652 12.7807 13.0652 12.7807 13.0182V12.2662C12.7807 12.2662 12.7807 12.2193 12.8277 12.2193H14.0026V9.02347C14.0026 9.02347 14.0026 8.97642 14.0496 8.97642H16.5405C17.8564 8.97642 18.6084 9.86939 18.6084 11.0443C18.6084 12.1723 17.8094 13.0652 16.4465 13.0652ZM23.9661 15.979H21.9922L23.9661 14.0052V15.979ZM23.9661 10.9503L21.9922 8.97642H23.9661V10.9503Z" fill="white"/>
</svg>
