<svg width="32" height="32" viewBox="0 0 32 32" fill="none" xmlns="http://www.w3.org/2000/svg">
<path fill-rule="evenodd" clip-rule="evenodd" d="M11 6C8.94968 6 7.1876 7.2341 6.41604 9H15.584C14.8124 7.2341 13.0503 6 11 6ZM6 11V10H16V11V25H13.3333V23.1111H8.66667V25H6V11ZM11 14C11.5523 14 12 13.5523 12 13C12 12.4477 11.5523 12 11 12C10.4477 12 10 12.4477 10 13C10 13.5523 10.4477 14 11 14ZM9 15L11 20L13 15H9ZM22 6C19.9497 6 18.1876 7.2341 17.416 9H26.584C25.8124 7.2341 24.0503 6 22 6ZM17 11V10H27V11V25H24.3333V23.1111H19.6667V25H17V11ZM22 14C22.5523 14 23 13.5523 23 13C23 12.4477 22.5523 12 22 12C21.4477 12 21 12.4477 21 13C21 13.5523 21.4477 14 22 14ZM20 20L22 15L24 20H20Z" fill="#262626"/>
<path fill-rule="evenodd" clip-rule="evenodd" d="M5.32364 9L5.49857 8.59963C6.42352 6.48263 8.53694 5 10.9989 5C13.4605 5 15.5738 6.4823 16.4989 8.59892C17.424 6.4823 19.5372 5 21.9989 5C24.4608 5 26.5742 6.48263 27.4992 8.59963L27.6741 9H27.9989V9.7433L28.111 10H27.9989V26H23.3322V24.1111H20.6655V26H12.3322V24.1111H9.66554V26H4.99888V10H4.88672L4.99888 9.7433V9H5.32364ZM15.5828 9C15.4269 8.643 15.2304 8.30773 14.9992 8C14.087 6.78555 12.6347 6 10.9989 6C9.36306 6 7.91072 6.78555 6.99851 8C6.76737 8.30773 6.5709 8.643 6.41492 9H15.5828ZM25.9992 8C26.2304 8.30773 26.4269 8.643 26.5828 9H17.4149C17.5709 8.643 17.7674 8.30773 17.9985 8C18.9107 6.78555 20.3631 6 21.9989 6C23.6347 6 25.087 6.78555 25.9992 8ZM10.9989 14C11.5512 14 11.9989 13.5523 11.9989 13C11.9989 12.4477 11.5512 12 10.9989 12C10.4466 12 9.99888 12.4477 9.99888 13C9.99888 13.5523 10.4466 14 10.9989 14ZM8.99888 15H12.9989L10.9989 20L8.99888 15ZM10.4759 16L10.9989 17.3074L11.5218 16H10.4759ZM5.99888 25V10H15.9989V25H13.3322V23.1111H8.66554V25H5.99888ZM16.9989 25V10H26.9989V25H24.3322V23.1111H19.6655V25H16.9989ZM22.5966 13.8018C22.8408 13.6194 22.9989 13.3282 22.9989 13C22.9989 12.4477 22.5512 12 21.9989 12C21.4466 12 20.9989 12.4477 20.9989 13C20.9989 13.3282 21.157 13.6194 21.4011 13.8018C21.5679 13.9263 21.7748 14 21.9989 14C22.223 14 22.4299 13.9263 22.5966 13.8018ZM19.9989 20H23.9989L21.9989 15L19.9989 20ZM21.9989 17.6926L21.4759 19H22.5218L21.9989 17.6926Z" fill="white"/>
</svg>
