<svg width="32" height="32" viewBox="0 0 32 32" fill="none" xmlns="http://www.w3.org/2000/svg">
<path d="M8.012 19.012L6.716 12.316H4.25L6.518 22H9.074L10.856 14.656L12.62 22H15.176L17.462 12.316H14.996L13.7 18.994L12.17 12.316H9.524L8.012 19.012Z" fill="#262626"/>
<path d="M22.9026 12.1C20.0046 12.1 18.0426 14.224 18.0426 17.176C18.0426 20.11 19.8966 22.234 22.7946 22.234C24.8106 22.234 26.8086 21.352 27.3846 18.706H25.0086C24.6666 19.858 23.7846 20.308 22.9206 20.308C21.5526 20.308 20.5806 19.174 20.5806 17.14C20.5806 15.124 21.6066 14.026 22.9026 14.026C23.8566 14.026 24.7206 14.692 24.9186 15.628H27.2946C26.9526 13.234 24.9366 12.1 22.9026 12.1Z" fill="#262626"/>
<path fill-rule="evenodd" clip-rule="evenodd" d="M6.71554 12.316L8.01154 19.012L9.52354 12.316H12.1695L13.6995 18.994L14.9955 12.316H17.4615L15.1755 22H12.6195L10.8555 14.656L9.07354 22H6.51754L4.24954 12.316H6.71554ZM10.8506 18.9171L9.85991 23H5.72468L2.98828 11.316H7.54055L8.08684 14.1385L8.72417 11.316H12.9663L13.6185 14.1625L14.171 11.316H18.7251L18.25 13.3287C18.377 13.1592 18.5136 12.9972 18.6595 12.8432C19.714 11.7303 21.1979 11.1 22.9022 11.1C25.2757 11.1 27.8515 12.4581 28.2841 15.4866L28.4472 16.628H24.1076L23.9398 15.8349C23.8446 15.3847 23.4081 15.026 22.9022 15.026C22.5594 15.026 22.267 15.1611 22.038 15.4492C21.7957 15.7541 21.5802 16.2933 21.5802 17.14C21.5802 18.0099 21.7891 18.5643 22.0296 18.8767C22.2506 19.1638 22.5404 19.308 22.9202 19.308C23.4037 19.308 23.8504 19.0922 24.0495 18.4214L24.2619 17.706H28.6253L28.3613 18.9187C28.0229 20.4733 27.2413 21.5865 26.1855 22.2932C25.1521 22.9849 23.9377 23.234 22.7942 23.234C21.0873 23.234 19.6249 22.6014 18.5954 21.4822C17.7803 20.5959 17.277 19.4496 17.1069 18.1708L15.967 23H11.8313L10.8506 18.9171ZM27.0669 19.706C26.2545 21.5793 24.531 22.234 22.7942 22.234C19.8962 22.234 18.0422 20.11 18.0422 17.176C18.0422 14.224 20.0042 12.1 22.9022 12.1C24.6286 12.1 26.3421 12.917 27.0299 14.628C27.1525 14.9328 27.2425 15.266 27.2942 15.628H24.9182C24.7202 14.692 23.8562 14.026 22.9022 14.026C21.6062 14.026 20.5802 15.124 20.5802 17.14C20.5802 19.174 21.5522 20.308 22.9202 20.308C23.7842 20.308 24.6662 19.858 25.0082 18.706H27.3842C27.3044 19.0723 27.1974 19.4049 27.0669 19.706Z" fill="white"/>
</svg>
