<svg width="32" height="37" viewBox="0 0 32 37" fill="none" xmlns="http://www.w3.org/2000/svg">
<path d="M19.3898 31.909C19.6683 31.4907 20.0959 31.1978 20.5778 31.0554C27.1837 29.104 32 23.0379 32 15.857C32 7.09941 24.8366 0 16 0C7.16344 0 0 7.09941 0 15.857C0 23.0381 4.81667 29.1044 11.4228 31.0556C11.9048 31.1979 12.3325 31.4909 12.611 31.9093L15.5841 36.3749C15.782 36.6721 16.2186 36.6721 16.4165 36.3749L19.3898 31.909Z" fill="#F0AF18"/>
<g clip-path="url(#clip0_201_3755)">
<path d="M13.6519 10.8515C12.625 11.2756 11.7126 11.9815 11.0452 12.8762C10.3251 13.8419 10 15.3437 10 16.5649C10 18.1093 11.0176 20.8618 13.3713 24.746C13.4669 24.9038 13.6379 25.0001 13.8223 25.0001H18.1776C18.362 25.0001 18.5331 24.9037 18.6286 24.746C20.1997 22.1535 21.253 20.0659 21.7803 18.5044C22.2045 16.4438 22.3081 14.6942 20.9523 12.8763C20.285 11.9816 19.3726 11.2757 18.3456 10.8515L19.3267 7.68337C19.3763 7.52333 19.3468 7.34928 19.2474 7.21445C19.148 7.07959 18.9905 7 18.823 7H13.1746C13.0071 7 12.8495 7.07959 12.7501 7.21445C12.6507 7.34928 12.6213 7.52333 12.6709 7.68337L13.6519 10.8515Z" fill="white"/>
</g>
<defs>
<clipPath id="clip0_201_3755">
<rect width="18" height="18" fill="white" transform="matrix(-1 0 0 1 25 7)"/>
</clipPath>
</defs>
</svg>
